<?xml version="1.0" standalone="no"?>
<!DOCTYPE svg PUBLIC "-//W3C//DTD SVG 1.1//EN" "http://www.w3.org/Graphics/SVG/1.1/DTD/svg11.dtd" >
<svg xmlns="http://www.w3.org/2000/svg">
<metadata></metadata>
<defs>
<font id="titlinggothicfb_normanormalLt" horiz-adv-x="419" >
<font-face units-per-em="1000" ascent="800" descent="-200" />
<missing-glyph horiz-adv-x="272" />
<glyph unicode="fi" horiz-adv-x="606" d="M454 481h-256v-481h-76v480h-106v70h106v112q0 142 160 142q24 0 105 -9v-68q-49 9 -86 8q-104 0 -104 -82v-104h333v-502q0 -43 6 -47h-76q-6 8 -6 44v437z" />
<glyph unicode="fl" horiz-adv-x="604" d="M16 480v70h105v111q0 143 158 143q27 0 108 -9v-68q-50 9 -88 8q-103 0 -103 -79v-107h186v-69h-185v-480h-76v480h-105zM535 0h-75q-5 3 -5 31v712q0 39 -2 55h74q3 -9 3 -46v-700q0 -47 5 -52z" />
<glyph unicode=" "  horiz-adv-x="272" />
<glyph unicode="&#x09;" horiz-adv-x="272" />
<glyph unicode="&#xa0;" horiz-adv-x="272" />
<glyph unicode="!" horiz-adv-x="271" d="M181 790l-10 -598h-71l-10 598h91zM180 0h-89v127h89v-127z" />
<glyph unicode="&#x22;" horiz-adv-x="388" d="M330 790l-4 -338h-72l-4 338h80zM138 790l-6 -338h-70l-5 338h81z" />
<glyph unicode="#" horiz-adv-x="546" d="M523 506l-7 -61h-114l-23 -126h123l-7 -60h-125l-41 -279h-49l41 279h-134l-41 -279h-49l41 279h-117l7 60h118q14 85 23 126h-127l7 61h129l38 256h50l-39 -256h135l37 256h50q-27 -202 -38 -256h112zM352 445h-134l-22 -126h134q13 85 22 126z" />
<glyph unicode="$" horiz-adv-x="659" d="M303 5q-223 9 -261 147q-8 29 -8 68h75q0 -35 8 -58q16 -51 63 -71t123 -23v314q-6 2 -23 7.5t-26 7.5q-112 35 -161.5 79t-49.5 122q0 172 260 181v27h48v-28q108 -4 163 -41.5t75 -109.5q5 -18 7 -66h-75q0 39 -6 57q-28 89 -164 93v-270q7 -2 22 -6t23 -7 q125 -37 172 -85t47 -138q0 -52 -21.5 -90.5t-60 -61t-83.5 -34.5t-99 -14v-53h-48v53zM303 714q-100 -3 -143 -31.5t-43 -84.5q0 -54 46 -85.5t140 -57.5v259zM351 67q91 4 139 39t48 95q0 65 -38.5 101.5t-148.5 66.5v-302z" />
<glyph unicode="%" horiz-adv-x="998" d="M471 578q0 -76 -57 -133t-154 -57q-99 0 -156 58t-57 132v34q0 82 55.5 136.5t156.5 54.5q103 0 157.5 -56.5t54.5 -134.5v-34zM761 772l-490 -772h-54l490 772h54zM949 183q0 -82 -55 -136.5t-158 -54.5q-100 0 -156 57t-56 134v34q0 77 56.5 134t155.5 57 q101 0 157 -59t56 -132v-34zM407 580v31q0 53 -40 92t-108 39q-73 0 -110.5 -35.5t-37.5 -94.5v-32q0 -52 40.5 -93t107.5 -41q74 0 111 40t37 94zM885 185v31q0 52 -39.5 92t-109.5 40q-73 0 -110.5 -38t-37.5 -93v-32q0 -50 40 -91.5t108 -41.5q76 0 112.5 39.5t36.5 93.5 z" />
<glyph unicode="&#x26;" horiz-adv-x="802" d="M326 377q74 -81 256 -217q70 72 78 197h75q-6 -143 -99 -241q72 -57 152 -116h-119q-22 15 -94 67q-107 -75 -258 -75q-139 0 -215.5 40t-79.5 136v29q1 57 50.5 101.5t140.5 93.5q-86 105 -88 206v31q2 72 57.5 120.5t148.5 48.5q84 0 134.5 -49.5t54.5 -116.5v-29 q-1 -37 -16.5 -69.5t-45 -61t-59.5 -49.5t-73 -46zM280 431q79 43 120.5 80.5t41.5 88.5v21q-1 43 -31 74t-84 31q-62 0 -93.5 -31.5t-33.5 -79.5q-2 -9 0 -19q2 -76 80 -165zM260 335q-54 -29 -82 -46.5t-53 -46t-25 -58.5q0 -68 56 -95t158 -27q117 0 203 53 q-172 130 -257 220z" />
<glyph unicode="'" horiz-adv-x="302" d="M193 790l-6 -342h-74l-5 342h85z" />
<glyph unicode="(" horiz-adv-x="318" d="M306 -69h-82q-29 29 -56.5 65t-58.5 90t-49.5 126t-18.5 148q0 134 59 254t124 176h82q-71 -64 -126 -185t-55 -245q0 -134 54.5 -246.5t126.5 -182.5z" />
<glyph unicode=")" horiz-adv-x="318" d="M286 360q0 -76 -18.5 -147.5t-49.5 -125.5t-58.5 -90.5t-56.5 -65.5h-82q72 69 127 182t55 247q0 124 -55.5 245t-126.5 185h82q66 -56 124.5 -176t58.5 -254z" />
<glyph unicode="*" horiz-adv-x="570" d="M307 634l142 68l22 -62l-150 -57l116 -129l-49 -42l-107 140l-103 -139l-49 43l111 127l-153 57l21 62l147 -68l-5 166h61z" />
<glyph unicode="+" horiz-adv-x="569" d="M525 375h-206v-192h-66v192h-208v59h207v191h67v-191h206v-59z" />
<glyph unicode="," horiz-adv-x="304" d="M198 -4l-52 -90l-52 6l42 90l-11 -2h-25v136h98v-140z" />
<glyph unicode="-" horiz-adv-x="451" d="M437 332h-423v79h423v-79z" />
<glyph unicode="." horiz-adv-x="304" d="M202 0h-103v136h103v-136z" />
<glyph unicode="/" horiz-adv-x="296" d="M320 797l-302 -956h-49l301 956h50z" />
<glyph unicode="0" horiz-adv-x="666" d="M334 799q115 0 185 -51.5t90 -136.5q16 -66 16 -216q0 -153 -22 -223q-28 -93 -94 -137t-176 -44q-114 0 -177 43t-92 139q-22 71 -22 222q0 146 16 216q19 87 91 137.5t185 50.5zM542 395q0 146 -13 199q-13 61 -64.5 96.5t-131.5 35.5q-81 0 -132.5 -35.5t-64.5 -96.5 q-12 -56 -12 -199t17 -205q38 -127 193 -127q152 0 191 127q17 59 17 205z" />
<glyph unicode="1" horiz-adv-x="455" d="M333 0h-79v688l-204 -38v69q129 23 171.5 38t52.5 37h59v-794z" />
<glyph unicode="2" horiz-adv-x="627" d="M606 0h-572v72q92 56 153.5 96.5t124 90t98.5 93t58.5 95.5t22.5 107v21q0 68 -46 109.5t-139 41.5q-89 0 -136 -37.5t-54 -97.5q-2 -20 -2 -38h-79q0 21 2 51q11 85 78 140t197 55q134 0 198.5 -59t66.5 -150q0 -28 -1 -40q-4 -246 -424 -477h454v-73z" />
<glyph unicode="3" horiz-adv-x="648" d="M441 423q76 -7 125.5 -60t49.5 -140q0 -104 -73.5 -168t-221.5 -64q-281 0 -281 247h79q0 -178 203 -178q210 0 210 164q0 70 -44 112t-139 42h-157v69h146q163 0 163 143q0 61 -41 99t-134 38q-108 0 -145 -42.5t-37 -123.5h-77q0 238 262 238q127 0 189.5 -54.5 t62.5 -138.5q0 -73 -36 -123.5t-104 -59.5z" />
<glyph unicode="4" horiz-adv-x="632" d="M626 196h-127v-196h-77v196h-402v83l394 518h85v-528h127v-73zM422 269v428l-322 -428h322z" />
<glyph unicode="5" horiz-adv-x="653" d="M332 -9q-120 0 -193 46.5t-89 136.5q-4 23 -4 62h79q0 -30 4 -50q12 -61 65 -91.5t130 -30.5q209 0 209 197q0 201 -196 201q-138 0 -186 -94h-82v420h500v-75h-427v-278q25 50 84 75.5t133 25.5q125 0 192 -73.5t67 -195.5q0 -133 -75 -204.5t-211 -71.5z" />
<glyph unicode="6" horiz-adv-x="650" d="M346 -9q-73 0 -123.5 16t-93 58.5t-63.5 124.5t-21 206q0 205 62.5 304t221.5 99q135 0 195 -51t65 -144h-76q-6 60 -44.5 91t-140.5 31q-119 0 -161.5 -71t-42.5 -236q27 38 92 63t152 25q113 0 179.5 -64.5t66.5 -187.5q0 -126 -70 -195t-198 -69zM536 251 q0 186 -189 186q-94 0 -152 -32t-70 -64q0 -157 54.5 -218.5t166.5 -61.5q95 0 142.5 51.5t47.5 138.5z" />
<glyph unicode="7" horiz-adv-x="541" d="M535 716l-349 -716h-87l357 715h-451v75h530v-74z" />
<glyph unicode="8" horiz-adv-x="648" d="M323 -9q-132 0 -211.5 63t-79.5 175q0 88 51 143.5t127 64.5q-60 11 -95.5 56.5t-35.5 115.5q0 83 61 137t183 54q121 0 182.5 -53t61.5 -136q0 -71 -36.5 -118.5t-92.5 -55.5q83 -11 130 -67.5t47 -140.5q0 -112 -78.5 -175t-213.5 -63zM494 602q0 65 -47.5 96.5 t-123.5 31.5q-172 0 -172 -128q-2 -60 37 -95.5t135 -35.5q93 0 132 34.5t39 96.5zM540 232q0 78 -53.5 124.5t-163.5 46.5q-107 0 -161.5 -46.5t-54.5 -127.5q2 -83 58.5 -125.5t157.5 -42.5q108 0 162.5 44t54.5 127z" />
<glyph unicode="9" horiz-adv-x="650" d="M592 203q-43 -212 -272 -212q-215 0 -251 141q-6 25 -8 54h76q0 -16 5 -31q14 -46 56.5 -68.5t123.5 -22.5q84 0 134 42.5t61 119.5q9 66 9 144q-29 -39 -92 -65.5t-149 -26.5q-105 0 -164 49.5t-73 130.5q-8 35 -8 83t9 80q22 83 89.5 130.5t179.5 47.5q107 0 173.5 -46 t93.5 -148q20 -77 20 -211q0 -130 -13 -191zM525 449q-1 77 -12 130q-32 151 -194 151q-81 0 -131 -35t-63 -95q-12 -53 -2 -115q21 -137 183 -137q93 0 149.5 34t69.5 67z" />
<glyph unicode=":" horiz-adv-x="302" d="M200 414h-93v126h93v-126zM200 0h-93v126h93v-126z" />
<glyph unicode=";" horiz-adv-x="302" d="M200 414h-93v126h93v-126zM201 -4l-60 -92l-40 21l40 79l-12 -4h-23v129h95v-133z" />
<glyph unicode="&#x3c;" horiz-adv-x="611" d="M553 121l-501 204v65l501 203v-67l-431 -169l431 -170v-66z" />
<glyph unicode="=" horiz-adv-x="574" d="M537 446h-500v57h500v-57zM537 301h-500v58h500v-58z" />
<glyph unicode="&#x3e;" horiz-adv-x="611" d="M555 325l-501 -204v65l431 171l-431 170v67l501 -204v-65z" />
<glyph unicode="?" horiz-adv-x="572" d="M550 559q-7 -48 -35.5 -83t-64 -57.5t-70 -48t-58 -70t-23.5 -108.5h-71q0 61 16 108.5t41 74.5t54.5 51t56 40.5t46 41t23.5 54.5q4 25 1 59q-9 56 -51 81.5t-135 25.5q-76 0 -120.5 -25.5t-53.5 -69.5q-9 -39 -9 -60h-77q0 33 12 83q35 143 259 143q130 0 189.5 -41 t70.5 -120q6 -30 -1 -79zM308 0h-89v127h89v-127z" />
<glyph unicode="@" horiz-adv-x="941" d="M899 386q-7 -127 -64.5 -198t-147.5 -71q-48 0 -73.5 29.5t-24.5 70.5q-25 -47 -74 -73t-108 -26q-80 0 -127 54.5t-36 152.5q11 111 76.5 181t169.5 70q48 0 84.5 -24t49.5 -61l19 67h62q-35 -141 -57 -243q-34 -146 57 -146q61 0 101 59.5t46 159.5q6 97 -27 174.5 t-113.5 126.5t-199.5 49q-187 0 -300.5 -111t-119.5 -285q-5 -106 22 -187t78 -127.5t113.5 -69t135.5 -22.5q200 0 317 108l24 -33q-127 -113 -341 -113q-86 0 -159 27.5t-128 80.5t-84 138t-25 194q7 199 135.5 319t334.5 120q198 0 297 -111.5t87 -279.5zM605 418 q5 35 -27 69t-83 34q-70 0 -123 -51t-63 -139q-9 -76 22 -117t92 -41q127 0 157 126q25 118 25 119z" />
<glyph unicode="A" horiz-adv-x="691" d="M163 208l-77 -208h-83l300 790h98l287 -790h-83l-76 208h-366zM504 280l-130 360l-23 71l-25 -71l-136 -360h314z" />
<glyph unicode="B" horiz-adv-x="744" d="M639 55q-53 -55 -156 -55h-389v790h354q92 0 150 -56q49 -49 49 -140q0 -99 -55 -156q-20 -22 -51 -29q59 -7 104 -52q50 -50 50 -148t-56 -154zM565 579q0 71 -38 106q-35 33 -92 33h-262v-284h290q35 0 59 24q43 41 43 121zM575 106q38 35 38 108q0 77 -42 115 q-37 35 -95 35h-303v-291h301q64 0 101 33z" />
<glyph unicode="C" horiz-adv-x="742" d="M704 272q-10 -106 -76 -185q-81 -96 -237 -96q-163 0 -245 82q-100 100 -100 325q0 220 90 311q88 91 248 91q183 0 262 -112q51 -65 58 -174h-83q-8 92 -56 142q-59 65 -184 65q-117 0 -181 -65q-70 -71 -70 -259q0 -191 79 -270q61 -62 179 -62q112 0 172 62 q52 53 63 145h81z" />
<glyph unicode="D" horiz-adv-x="736" d="M630 81q-65 -81 -214 -81h-322v790h313q151 0 216 -71q37 -41 53 -114t16 -199q0 -132 -14 -207t-48 -118zM564 130q27 31 36.5 94.5t10.5 180.5q0 208 -52 259q-27 27 -63 38.5t-94 11.5h-229v-638h227q61 0 99 12t65 42z" />
<glyph unicode="E" horiz-adv-x="665" d="M609 0h-515v790h511v-76h-432v-277h415v-76h-415v-286h436v-75z" />
<glyph unicode="F" horiz-adv-x="643" d="M605 714h-431v-277h410v-76h-410v-361h-80v790h511v-76z" />
<glyph unicode="G" horiz-adv-x="730" d="M679 0h-67l-4 111q-11 -20 -27.5 -38.5t-44.5 -38.5t-71 -32t-96 -12q-61 0 -108.5 11t-89 38.5t-68.5 73t-42 116.5t-15 166q0 203 76.5 304t251.5 101q78 0 137 -21.5t93 -60t51.5 -86t19.5 -103.5h-79q-11 195 -220 195q-135 0 -191.5 -72.5t-56.5 -258.5 q0 -98 15 -162.5t47.5 -101.5t77 -52t109.5 -15q89 0 144 40t79 101q4 13 4 144h-270v74h345v-213v-208z" />
<glyph unicode="H" horiz-adv-x="760" d="M666 0h-79v360h-413v-360h-80v790h80v-353h413v353h79v-790z" />
<glyph unicode="I" horiz-adv-x="270" d="M176 0h-82v790h82v-790z" />
<glyph unicode="J" horiz-adv-x="503" d="M416 209q0 -108 -62 -161.5t-170 -53.5q-100 0 -172 14v73q75 -14 153 -14q171 0 171 160v563h80v-581z" />
<glyph unicode="K" horiz-adv-x="679" d="M668 0h-98l-310 391l-86 -85v-306h-80v790h80v-385l388 385h96l-341 -343z" />
<glyph unicode="L" horiz-adv-x="608" d="M587 0h-493v790h81v-714h412v-76z" />
<glyph unicode="M" horiz-adv-x="912" d="M819 0h-76v670l-246 -670h-88l-239 670v-670h-76v790h115l246 -690l251 690h113v-790z" />
<glyph unicode="N" horiz-adv-x="753" d="M662 0h-93l-398 673v-673h-77v790h99l393 -666v666h76v-790z" />
<glyph unicode="O" horiz-adv-x="759" d="M380 800q171 0 252 -98q82 -89 82 -304t-89 -315q-75 -93 -246 -93q-166 0 -242 94q-91 98 -91 313q0 214 84 302q84 101 250 101zM381 64q111 0 175 62q77 77 77 270q0 192 -69 261q-67 67 -184 67t-182 -67q-70 -70 -70 -263q0 -190 84 -272q58 -58 169 -58z" />
<glyph unicode="P" horiz-adv-x="704" d="M658 542q0 -138 -57.5 -190.5t-171.5 -54.5h-255v-297h-80v790h339q115 0 170 -54.5t55 -193.5zM576 541q0 105 -35 139.5t-113 34.5h-254v-343h252q82 0 116 33.5t34 135.5z" />
<glyph unicode="Q" horiz-adv-x="759" d="M473 8q23 -21 63 -42q53 -29 87 -33l-42 -63q-49 7 -114 49q-59 35 -90 74q-9 -1 -29 -1q-59 1 -117 24.5t-96 68.5q-89 101 -89 312q0 212 85 304q81 99 249 99q172 0 251 -96q83 -90 83 -306q0 -107 -23.5 -189.5t-66.5 -124.5q-67 -66 -151 -76zM381 63q112 0 175 61 q77 74 77 273q0 184 -69 258q-65 70 -184 70q-110 0 -173 -60q-79 -73 -79 -271q0 -191 80 -270q64 -61 173 -61z" />
<glyph unicode="R" horiz-adv-x="731" d="M645 571q0 -86 -21 -125q-36 -65 -105 -73l184 -373h-92l-171 356h-267v-356h-79v790h359q132 0 171 -96q21 -46 21 -123zM563 563q0 67 -11 92q-25 60 -115 60h-264v-288h279q77 3 98 50q13 27 13 86z" />
<glyph unicode="S" horiz-adv-x="719" d="M664 214q0 -102 -72.5 -163t-217.5 -61q-157 0 -236.5 62t-84.5 176h82q9 -166 237 -166q208 0 208 142q0 53 -28.5 86.5t-74.5 48.5t-101 25t-110 22.5t-101 33t-74.5 65t-28.5 110.5q0 90 69.5 147t213.5 57q148 0 219 -57t88 -169h-82q-16 82 -69 117.5t-160 35.5 q-99 0 -147.5 -34.5t-48.5 -91.5q0 -41 18 -69.5t48 -44t68.5 -26t82 -17.5t86.5 -15t81.5 -22.5t68.5 -37t48 -62t18 -92.5z" />
<glyph unicode="T" horiz-adv-x="616" d="M613 715h-264v-715h-81v715h-264v75h609v-75z" />
<glyph unicode="U" horiz-adv-x="745" d="M662 218q0 -108 -78.5 -167.5t-208.5 -59.5q-134 0 -213 57t-79 173v569h80v-568q0 -76 54.5 -117t159.5 -41q90 0 147.5 41.5t57.5 115.5v569h80v-572z" />
<glyph unicode="V" horiz-adv-x="695" d="M694 790l-297 -790h-99l-297 790h85l263 -702l262 702h83z" />
<glyph unicode="W" horiz-adv-x="1000" d="M999 790l-228 -790h-97l-173 687l-177 -687h-96l-227 790h85l194 -689l174 689h95l174 -689l196 689h80z" />
<glyph unicode="X" horiz-adv-x="651" d="M327 338l-235 -338h-91l283 404l-262 386h93l215 -319l223 319h89l-269 -384l276 -406h-92z" />
<glyph unicode="Y" horiz-adv-x="704" d="M702 790l-315 -521v-269h-82v268l-302 522h87l257 -441l271 441h84z" />
<glyph unicode="Z" horiz-adv-x="623" d="M599 0h-564v71l454 644h-433v75h529v-68l-458 -648h472v-74z" />
<glyph unicode="[" horiz-adv-x="398" d="M350 -173h-260v963h260v-63h-188v-839h188v-61z" />
<glyph unicode="\" horiz-adv-x="296" d="M-23 797h51l301 -956h-50z" />
<glyph unicode="]" horiz-adv-x="409" d="M57 -173v61h186v840h-186v62h258v-963h-258z" />
<glyph unicode="^" horiz-adv-x="589" d="M300 737l-216 -194l-48 49l224 204h80l223 -204l-48 -49z" />
<glyph unicode="_" horiz-adv-x="444" d="M443 -165h-443v70h443v-70z" />
<glyph unicode="`" d="M288 598h-75l-112 134h84z" />
<glyph unicode="a" horiz-adv-x="609" d="M551 0h-71q-2 0 -4.5 13t-4 32.5t-0.5 33.5q-52 -85 -219 -85q-99 0 -152 38t-55 106v25q2 72 65 117.5t200 48.5q76 2 160 -7q0 57 -2 78q-3 50 -40.5 72.5t-118.5 22.5q-97 0 -133 -36q-33 -32 -33 -81h-71q5 75 39 113q61 70 197 70q115 0 170 -35.5t61 -107.5 q3 -37 3 -153q-1 -37 -1 -154q0 -83 10 -111zM471 266q-80 8 -135 7q-129 -3 -182 -42q-34 -25 -34 -73q0 -40 24 -64q38 -38 129 -38q99 0 144 38q48 40 52 107q2 11 2 65z" />
<glyph unicode="b" horiz-adv-x="652" d="M347 561q130 0 195 -69q68 -73 68 -209q0 -143 -74 -222q-61 -66 -188 -66q-149 0 -201 90l-5 -85h-69v797h74v-337q13 41 68.5 71t131.5 30zM338 493q-78 0 -124 -33.5t-60 -88.5q-9 -45 -9 -107q0 -61 12 -99q18 -46 61.5 -75.5t114.5 -29.5q107 0 156 55q46 50 46 163 q0 102 -40 153q-49 62 -157 62z" />
<glyph unicode="c" horiz-adv-x="616" d="M575 355h-74q0 58 -46 96.5t-139 38.5q-201 0 -201 -215q0 -113 47.5 -164t155.5 -51q169 0 185 128h72q-6 -88 -69 -142.5t-191 -54.5q-276 0 -276 285q0 138 71 211.5t204 73.5q77 0 132 -20.5t81 -54t37 -65.5t11 -66z" />
<glyph unicode="d" horiz-adv-x="641" d="M308 558q64 0 116 -22.5t73 -64.5v321h74v-737l3 -55h-70l-9 82q-51 -91 -207 -91q-121 0 -184.5 71.5t-63.5 209.5q0 135 72 210.5t196 75.5zM306 486q-92 0 -141.5 -54.5t-49.5 -158.5q0 -218 189 -218q194 0 194 215q0 117 -47.5 166.5t-144.5 49.5z" />
<glyph unicode="e" horiz-adv-x="605" d="M576 168q-13 -77 -76.5 -127t-183.5 -50q-277 0 -277 286q0 137 72.5 210.5t199.5 73.5q146 0 211 -83.5t58 -232.5h-467q6 -188 204 -188q95 0 138 33t48 78h73zM504 309q0 184 -193 184q-100 0 -149 -50.5t-49 -133.5h391z" />
<glyph unicode="f" horiz-adv-x="389" d="M384 482h-186v-482h-76v482h-106v68h106v100q0 72 42.5 113t115.5 41q57 0 108 -9v-69q-51 9 -87 9q-104 0 -104 -93v-93h187v-67z" />
<glyph unicode="g" horiz-adv-x="580" d="M283 564q112 0 176 -48q19 18 61.5 28.5t76.5 8.5v-51q-22 0 -60 -6.5t-50 -17.5q37 -46 37 -116q0 -86 -59.5 -136t-178.5 -50q-86 0 -144 28q-31 -4 -31 -31q0 -16 14.5 -25.5t56.5 -15.5t118 -6q156 0 218.5 -35.5t62.5 -107.5q0 -75 -66.5 -111t-220.5 -36 q-146 0 -210 33t-64 101q0 44 27.5 74.5t59.5 40.5q-28 3 -44 24t-16 48q0 26 17 46t42 25q-27 16 -42.5 55t-15.5 85q0 86 60.5 141t174.5 55zM285 499q-81 0 -123 -36t-42 -96q0 -131 164 -131q79 0 122 33.5t43 97.5q0 132 -164 132zM291 -101q117 0 167 20t50 62 t-41.5 60t-163.5 22q-124 4 -125 4q-37 -6 -63.5 -28.5t-26.5 -55.5q0 -84 203 -84z" />
<glyph unicode="h" horiz-adv-x="613" d="M552 0h-76q-3 2 -3 365q0 61 -34 92.5t-113 31.5q-75 0 -126.5 -36.5t-51.5 -101.5v-351h-75v797h74v-336q17 49 71 74.5t131 25.5q98 0 149 -48t51 -135q0 -376 3 -378z" />
<glyph unicode="i" horiz-adv-x="227" d="M155 627h-82v112h82v-112zM157 0h-75q-6 4 -6 36v514h76v-511q0 -36 5 -39z" />
<glyph unicode="j" horiz-adv-x="233" d="M162 627h-83v112h83v-112zM158 -21q0 -160 -150 -160q-38 0 -57 7v65q28 -5 44 -5q88 0 88 98v566h75v-571z" />
<glyph unicode="k" horiz-adv-x="563" d="M561 0h-85l-193 312l-135 -124v-188h-75v797h75v-520l300 273h92l-202 -188z" />
<glyph unicode="l" horiz-adv-x="220" d="M151 0h-74q-4 3 -4 31v712q0 39 -2 55h74q3 -9 3 -46v-700q0 -48 3 -52z" />
<glyph unicode="m" horiz-adv-x="924" d="M786 0q-4 0 -4 365q0 58 -28 92t-99 34q-68 0 -111 -33t-43 -95v-363h-71v375q0 55 -33 85.5t-100 30.5q-65 0 -107 -40t-42 -91v-360h-75v550h72v-85q16 46 65 70.5t112 24.5t106 -24.5t56 -72.5q19 48 69.5 72.5t116.5 24.5q90 0 135.5 -46.5t45.5 -121.5 q0 -387 6 -392h-71z" />
<glyph unicode="n" horiz-adv-x="613" d="M551 0h-73q-4 0 -4.5 48t-0.5 315q0 126 -150 126q-72 0 -123.5 -36.5t-51.5 -102.5v-350h-75v550h72v-85q37 96 203 96q96 0 148.5 -50t52.5 -135q0 -108 0.5 -179.5t1 -137t0.5 -41.5q1 -18 0 -18z" />
<glyph unicode="o" horiz-adv-x="638" d="M599 276q0 -133 -74.5 -209t-204.5 -76q-131 0 -206 75t-75 210q0 123 71 204t210 81q137 0 208 -76.5t71 -208.5zM525 276q0 214 -206 214q-102 0 -154 -59t-52 -155q0 -105 52.5 -160.5t154.5 -55.5q95 0 150 55t55 161z" />
<glyph unicode="p" horiz-adv-x="643" d="M607 280q0 -140 -66 -211.5t-185 -71.5q-155 0 -208 82v-252h-75v723h72l2 -91q19 45 70 73.5t128 28.5q130 0 196 -75t66 -206zM531 276q0 103 -43 158t-151 55q-98 0 -144.5 -53t-46.5 -160q0 -116 49.5 -164t146.5 -48q95 0 142 50.5t47 161.5z" />
<glyph unicode="q" horiz-adv-x="640" d="M572 -173h-70l-6 7v249q-23 -42 -77.5 -67t-124.5 -25q-116 0 -185 69.5t-69 208.5q0 130 66 209.5t188 79.5q158 0 206 -100l-1 93h69v-653q0 -47 4 -71zM498 276q0 211 -188 211q-195 0 -195 -213q0 -113 48 -165t148 -52q187 0 187 219z" />
<glyph unicode="r" horiz-adv-x="451" d="M442 550v-80q-47 15 -117 15q-74 0 -125 -49t-51 -130v-306h-76v550h75v-109q13 51 66.5 85.5t122.5 34.5t105 -11z" />
<glyph unicode="s" horiz-adv-x="593" d="M547 151q0 -81 -58.5 -120.5t-186.5 -39.5q-146 0 -199.5 37t-53.5 132h74q0 -60 37.5 -82.5t143.5 -22.5q92 0 130.5 23t38.5 70q0 33 -23 53.5t-59.5 30t-80.5 16t-88 16.5t-80.5 25.5t-59.5 48.5t-23 81q0 66 57 104.5t169 38.5q123 0 182.5 -41.5t59.5 -130.5h-74 q0 25 -4.5 41t-19.5 32.5t-50.5 24.5t-91.5 8q-154 0 -154 -81q0 -41 42.5 -62.5t103.5 -30t122 -21t103.5 -49.5t42.5 -101z" />
<glyph unicode="t" horiz-adv-x="370" d="M350 480h-178v-330q0 -51 21 -69.5t72 -18.5q46 0 80 6v-65q-35 -10 -105 -10t-107 30.5t-37 102.5v354h-99v70h96q2 2 3.5 31t1.5 57v28l73 1v-117h179v-70z" />
<glyph unicode="u" horiz-adv-x="613" d="M547 0h-73l-3 74q-24 -44 -71.5 -63t-131.5 -19q-199 0 -199 159q0 396 -4 399v0h1v0h1h1h1h1h1h1h1h1h1h1h1h1h1h2h1h1h1h1h1h2h1h1h2h1h1h2h1h2h1h1h2h2h1h2h1h2h1h2h2h1h2h2h1h2h2h2h1h2h2h9q2 0 2 -374q0 -119 150 -119q80 0 128 34.5t48 91.5v367h74v-454 q0 -78 3 -96z" />
<glyph unicode="v" horiz-adv-x="589" d="M580 550l-239 -550h-93l-238 550h81l205 -481l206 481h78z" />
<glyph unicode="w" horiz-adv-x="931" d="M929 550l-208 -550h-90q-157 439 -157 447l-6 31q-5 -29 -6 -31l-155 -447h-91l-206 550h76l178 -485l164 485h85l167 -485l176 485h73z" />
<glyph unicode="x" horiz-adv-x="556" d="M282 334l183 216h84l-226 -268l229 -282h-89l-184 227l-191 -227h-83l235 279l-220 271h91z" />
<glyph unicode="y" horiz-adv-x="588" d="M579 550l-321 -723h-79l77 174l-246 549h81q206 -464 206 -467l205 467h77z" />
<glyph unicode="z" horiz-adv-x="513" d="M490 0h-459v63l354 418h-348v69h438v-69l-349 -413h364v-68z" />
<glyph unicode="{" horiz-adv-x="448" d="M404 -162h-82q-79 0 -116 40t-37 103q0 32 6.5 111.5t6.5 112.5q0 121 -127 121v64q127 0 127 117q0 24 -6.5 69t-6.5 77q0 58 38.5 97.5t113.5 39.5h83v-64q-92 8 -129 -18.5t-35 -82.5q0 -14 5.5 -62t5.5 -69q0 -55 -25.5 -92t-77.5 -42q53 -4 78 -42t25 -95 q0 -32 -6 -111t-6 -111q-2 -54 35.5 -80t129.5 -18v-65z" />
<glyph unicode="|" horiz-adv-x="298" d="M180 -200h-62v1000h62v-1000z" />
<glyph unicode="}" horiz-adv-x="448" d="M43 -162v65q93 -8 130.5 18t35.5 80q0 32 -6 111t-6 111q0 57 25 95t78 42q-52 5 -77.5 42t-25.5 92q0 22 6 70.5t6 60.5q2 56 -35.5 82.5t-130.5 18.5v64h83q77 0 115 -39.5t38 -97.5q0 -32 -6.5 -77t-6.5 -69q0 -117 128 -117v-64q-128 0 -128 -121q0 -33 6.5 -112.5 t6.5 -111.5q0 -63 -37 -103t-117 -40h-82z" />
<glyph unicode="~" horiz-adv-x="568" d="M271 335q-5 7 -20.5 30t-22.5 31t-20 22t-26 19t-28 5q-26 0 -44 -14.5t-26 -41.5t-11 -50t-4 -54l-62 2q3 230 144 230q45 0 76.5 -26t65.5 -78q23 -35 34 -49.5t34 -31.5t48 -17q40 0 64 38t25 107l59 -3q-2 -98 -37.5 -154t-106.5 -56q-45 0 -77.5 22.5t-64.5 68.5z " />
<glyph unicode="&#xa1;" horiz-adv-x="271" d="M90 791h90v-127h-90v127zM90 -8l9 607h72l9 -607h-90z" />
<glyph unicode="&#xa2;" horiz-adv-x="601" d="M291 673v65h52v-65q165 -7 216 -115q14 -30 22 -88h-72q-7 42 -15 59q-37 79 -151 86v-448q98 6 144 72q19 28 23 65h71q-6 -58 -33 -96q-64 -89 -205 -97v0v0v-1v0v-1v-1v-1v-1v-1v-1v-1v-1v-1v-1v-1v-1v-1v-1v-1v-1v-2v-1v-1v-1v-1v-2v-1v-1v-2v-1v-2v-1v-1v-2v-1v-2 v-1v-2v-1v-2v-2v-1v-2v-1v-2v-2v-1v-2v-2v-2v-1v-2v-10h-52v76q-150 9 -210 110q-39 64 -39 170q0 114 48 185q61 89 201 96zM291 615q-95 -10 -134 -67q-39 -62 -39 -157q0 -39 8.5 -78t18.5 -57q48 -78 146 -89v448z" />
<glyph unicode="&#xa3;" horiz-adv-x="656" d="M140 378q-53 121 -54 216q0 95 58.5 150t185.5 55q238 0 259 -185q0 -5 0.5 -42t0.5 -41h-80q0 59 -2 85q-18 111 -175 111q-91 0 -128 -38t-37 -105t55 -206h278v-65h-258q15 -50 17 -95q1 -111 -114 -151h459v-67h-549v73q66 26 96 57t30 81q0 41 -21 102h-99v65h78z " />
<glyph unicode="&#xa4;" horiz-adv-x="719" d="M180 417v-22v-25h354v-52h-352q5 -92 15 -128q38 -127 193 -127q152 0 191 127q5 16 10 63h83q-3 -42 -15 -81q-28 -93 -94 -137t-176 -44q-114 0 -177 43t-92 139q-15 47 -20 145h-80v52h78v25v22h-78v51h79q2 85 15 143q19 87 91 137.5t185 50.5q115 0 185 -51.5 t90 -136.5q9 -36 12 -84h-83q-3 44 -9 67q-13 61 -64.5 96.5t-131.5 35.5q-81 0 -132.5 -35.5t-64.5 -96.5q-7 -32 -11 -126h353v-51h-354z" />
<glyph unicode="&#xa5;" horiz-adv-x="716" d="M313 189h-261v51h261v35l-310 515h87q262 -425 262 -446q0 10 69 121.5t137 218.5l69 106h86l-322 -512v-38h259v-51h-259v-47h259v-52h-259v-90h-78v90h-261v52h261v47z" />
<glyph unicode="&#xa6;" horiz-adv-x="298" d="M179 359h-63v441h63v-441zM179 -200h-63v430h63v-430z" />
<glyph unicode="&#xa7;" horiz-adv-x="531" d="M102 542q-45 30 -49 96v39q5 59 53 89.5t150 30.5t148.5 -29.5t55.5 -105.5q1 -10 1 -48h-61q0 27 -2 41q-5 51 -38 68.5t-106 17.5q-71 0 -101.5 -16.5t-35.5 -52.5v-30q4 -36 27 -51t89 -33q105 -29 164 -49q69 -22 82 -82q9 -44 -9 -83q-17 -35 -57 -50 q83 -30 93 -120v-45q-6 -66 -57 -103.5t-169 -37.5q-122 0 -179 32t-68 112q-1 10 -1 48h75q0 -27 2 -41q6 -55 43 -74t130 -19q83 0 115.5 22.5t38.5 63.5v36q-4 38 -35 61.5t-96 40.5q-71 18 -184 58q-43 14 -64 41.5t-21 77.5q0 31 20.5 59t45.5 36zM159 383 q14 -4 52.5 -17.5t76 -24.5t83.5 -23q35 6 44 47q15 65 -40 86q-58 23 -226 69q-21 -4 -34 -22.5t-13 -41.5q0 -31 12 -47t45 -26z" />
<glyph unicode="&#xa8;" d="M329 599h-76v106h76v-106zM167 599h-77v106h77v-106z" />
<glyph unicode="&#xa9;" horiz-adv-x="648" d="M613 492q-5 -107 -83.5 -174.5t-204.5 -67.5q-127 0 -207.5 69.5t-82.5 172.5q-2 26 0 64q5 109 85 176.5t205 67.5q121 0 201 -67t87 -179q2 -29 0 -62zM581 500q2 25 0 45q-4 105 -74 163.5t-182 58.5q-110 0 -181 -55t-77 -163q-2 -34 0 -49q1 -99 72 -159t186 -60 t184 60t72 159zM506 473q-12 -66 -53.5 -97t-126.5 -31q-187 0 -187 178q0 86 47.5 131.5t140.5 45.5q85 0 129.5 -34.5t49.5 -97.5h-62q-9 77 -115 77q-62 0 -95 -32.5t-33 -91.5q0 -66 30 -94t98 -28q55 0 81 17.5t35 56.5h61z" />
<glyph unicode="&#xaa;" horiz-adv-x="531" d="M490 270h-72l-7 81q-43 -86 -198 -86q-91 0 -140.5 35t-51.5 97q0 24 1 33q2 63 59.5 103.5t180.5 44.5q77 3 148 -2q1 10 0.5 38.5t-1.5 41.5q-2 49 -35.5 69.5t-111.5 20.5q-81 0 -117 -36q-30 -29 -30 -84h-69q0 73 37 113q52 71 181 71q109 0 159 -33.5t55 -100.5 q3 -26 3 -149q-2 -70 -2 -148q0 -83 11 -109zM505 174h-472v57h472v-57zM410 524q-57 5 -125 5q-123 -3 -165 -42q-25 -23 -27 -65q0 -41 23 -63q37 -36 119 -37q96 0 136 37q39 35 39 103v62z" />
<glyph unicode="&#xab;" horiz-adv-x="585" d="M533 102l-259 213v53l259 215v-83l-193 -158l193 -155v-85zM324 102l-259 213v53l259 215v-83l-193 -158l193 -155v-85z" />
<glyph unicode="&#xac;" horiz-adv-x="544" d="M404 540q3 5 10 13.5t12.5 15t8.5 11.5q12 17 25 1q13 -14 3 -24l-8 -4q-20 -3 -51 -13zM142 534q-31 10 -51 13q-16 3 -10 20q5 16 18 15q7 -1 12 -8q3 -5 8.5 -11.5t12.5 -15t10 -13.5zM256 515v219h-251v61h534v-61h-252v-219q42 -6 70.5 -38.5t28.5 -75.5 t-28.5 -75.5t-71.5 -37.5v-217h253v-66h-534v66h251l-1 217q-42 6 -70 38t-28 75t28.5 75.5t70.5 38.5zM406 269q31 -10 51 -13q16 -3 10 -20q-5 -16 -18 -15q-7 1 -12 8q-3 5 -8.5 11.5t-12.5 15t-10 13.5zM133 262q-3 -5 -10 -13.5t-12.5 -15t-8.5 -11.5q-12 -17 -25 -1 q-13 14 -3 24l8 4q20 3 51 13zM287 486v-47l-16 -34l-14 34v47q-30 -6 -50.5 -30t-20.5 -55t20 -54.5t50 -29.5v47l15 33l15 -33v-47q30 5 51 29t21 55t-20.5 55t-50.5 30z" />
<glyph unicode="&#xae;" horiz-adv-x="648" d="M613 492q-5 -107 -83.5 -174.5t-204.5 -67.5q-127 0 -207.5 69.5t-82.5 172.5q-2 26 0 64q6 110 86 177t204 67q121 0 201 -67t87 -179q2 -29 0 -62zM581 500q2 25 0 45q-4 105 -74 163.5t-182 58.5q-111 0 -182.5 -55t-75.5 -163q-2 -34 0 -49q1 -99 72 -159t186 -60 t184 60t72 159zM473 356h-65l-72 136h-81v-136h-61v327h164q118 0 118 -92q0 -83 -80 -92zM415 588q0 45 -58 45h-102v-96h102q58 0 58 51z" />
<glyph unicode="&#xaf;" d="M347 622h-276v53h276v-53z" />
<glyph unicode="&#xb0;" horiz-adv-x="303" d="M152 756q49 0 84 -35.5t35 -84.5q0 -50 -35 -85t-84 -35t-84 35t-35 85q0 49 35 84.5t84 35.5zM152 707q-29 0 -49 -21t-20 -50q0 -30 20 -50.5t49 -20.5q30 0 49 20.5t19 50.5q0 29 -19.5 50t-48.5 21z" />
<glyph unicode="&#xb1;" horiz-adv-x="566" d="M521 422h-207v-153h-61v153h-208v52h208v156h61v-156h207v-52zM520 181h-474v52h474v-52z" />
<glyph unicode="&#xb2;" horiz-adv-x="430" d="M392 388h-342v48q36 25 83 54t76.5 46.5t58 39t42 43.5t13.5 48v16q0 32 -24 48.5t-81 16.5q-41 0 -61.5 -9t-35.5 -35q-8 -15 -8 -40h-59q0 36 9 52q20 41 57 60.5t103 19.5q160 0 160 -106v-25q0 -15 -3.5 -28.5t-13 -27.5t-17.5 -24.5t-26 -24.5t-28.5 -22.5t-36 -24 t-37.5 -23t-43 -25.5t-44 -26h258v-51z" />
<glyph unicode="&#xb3;" horiz-adv-x="442" d="M296 596q107 -7 114 -78q1 -13 0 -29q-9 -107 -185 -107q-88 0 -132 25.5t-49 65.5q-2 32 -2 39h59q0 -22 1 -36q2 -24 33.5 -37.5t88.5 -13.5q119 0 124 63q2 12 0 24q-2 28 -25.5 42t-81.5 14h-98v45h98q87 6 90 62q0 1 0.5 11t-0.5 10q-4 28 -27.5 41.5t-76.5 13.5 q-99 0 -109 -48q-1 -14 -1 -33h-58q0 16 3 37q14 89 167 89q150 0 159 -87q1 -7 1 -27q-3 -38 -22.5 -58t-70.5 -28z" />
<glyph unicode="&#xb4;" d="M138 598l102 134h84l-113 -134h-73z" />
<glyph unicode="&#xb6;" horiz-adv-x="488" d="M445 797v-903h-37v843h-42v-843h-37v375q-15 -20 -49.5 -32t-68.5 -12q-120 0 -160 97q-27 66 -27 189t36 195q47 94 159 94q29 0 63.5 -10.5t46.5 -25.5l16 33h100zM328 520v68.5v65.5v29q0 21 -29 34.5t-53 13.5q-82 0 -112 -58q-32 -64 -32 -163q0 -110 26 -161 q13 -27 44 -42t66 -15q34 0 61 16t28 38q1 12 1 174z" />
<glyph unicode="&#xb7;" horiz-adv-x="304" d="M204 324h-108v136h108v-136z" />
<glyph unicode="&#xb8;" d="M277 -106q0 6 -2.5 11.5t-5.5 9t-9 7t-11 5.5t-13 4t-12.5 2.5t-13 1.5t-11.5 1h-11l-7 1v63h47v-26q107 -2 107 -80q0 -52 -55.5 -74t-145.5 10v42q61 -29 102 -20.5t41 42.5z" />
<glyph unicode="&#xb9;" horiz-adv-x="366" d="M243 388h-58v332l-167 -41v49q15 0 93 25.5t89 39.5h43v-405z" />
<glyph unicode="&#xba;" horiz-adv-x="581" d="M547 535q0 -127 -67 -200q-62 -74 -191 -74q-128 0 -192 72q-65 71 -65 202q0 129 66 201q63 73 192 73q134 0 197 -74q60 -65 60 -200zM542 174h-509v57h509v-57zM476 535q0 120 -47 167q-44 44 -140 44q-90 0 -136 -46q-50 -51 -50 -165q0 -120 52 -172q40 -40 134 -40 q91 0 131 40q56 58 56 172z" />
<glyph unicode="&#xbb;" horiz-adv-x="585" d="M262 112v85l191 156l-191 157v84l259 -216v-53zM53 112v85l191 156l-191 157v84l259 -216v-53z" />
<glyph unicode="&#xbc;" horiz-adv-x="749" d="M240 388h-59v332l-166 -41v49q15 0 93 25.5t89 39.5h43v-405zM577 790q-120 -241 -200 -400l-192 -390h-51q126 254 208 418l182 372h53zM726 105h-80v-105h-56v106h-253v53l246 244h63v-248h80v-50zM590 155v192l-196 -192h196z" />
<glyph unicode="&#xbd;" horiz-adv-x="733" d="M233 388h-58v332l-166 -41v49q15 0 93 25.5t89 39.5h42v-405zM548 790q-120 -241 -200 -400l-192 -390h-51q125 254 207 418l182 372h54zM710 0h-342v48q36 25 83 54t76.5 46.5t57.5 39t41.5 43.5t13.5 48v16q0 33 -23.5 49t-81.5 16q-41 0 -61.5 -9.5t-34.5 -34.5 q-8 -15 -8 -40h-59q0 36 8 52q21 41 58 60.5t103 19.5q160 0 160 -106v-25q0 -15 -3.5 -28.5t-13 -27t-18 -24.5t-25.5 -25t-29 -23t-36 -24t-37.5 -23t-43 -25t-43.5 -26h258v-51z" />
<glyph unicode="&#xbe;" horiz-adv-x="840" d="M269 596q108 -7 113 -78q1 -13 0 -29q-8 -107 -185 -107q-87 0 -131.5 25.5t-48.5 65.5q-3 24 -3 39h59q0 -22 1 -36q2 -24 33.5 -37.5t88.5 -13.5q119 0 124 63q2 12 0 24q-2 28 -25.5 42t-81.5 14h-98v45h98q87 6 90 62q0 1 0.5 11t-0.5 10q-4 28 -27 41.5t-77 13.5 q-99 0 -108 -48q-2 -28 -2 -33h-58q0 1 0.5 7t1.5 15t1 15q14 89 167 89q149 0 160 -87q1 -11 0 -27q-3 -38 -22.5 -58t-69.5 -28zM675 790q-120 -241 -200 -400l-192 -390h-51q125 254 207 418l182 372h54zM827 105h-80v-105h-56v106h-253v53l246 244h63v-248h80v-50z M691 155v193l-196 -193h196z" />
<glyph unicode="&#xbf;" horiz-adv-x="572" d="M266 790h89v-127h-89v127zM25 231q6 41 27 72.5t48.5 50t58.5 41t57 45.5t42.5 63.5t16.5 94.5h72q0 -61 -16.5 -108.5t-41 -74.5t-54.5 -51t-56.5 -40.5t-46 -41t-23.5 -54.5q-4 -35 0 -59q9 -55 50.5 -81t134.5 -26q76 0 121 25.5t54 69.5q8 52 8 60h77q0 -33 -12 -83 q-35 -143 -258 -143q-130 0 -189.5 41t-71.5 120q-6 32 2 79z" />
<glyph unicode="&#xc0;" horiz-adv-x="691" d="M163 208l-77 -208h-83l300 790h98l287 -790h-83l-76 208h-366zM504 280l-130 360l-23 71l-25 -71l-136 -360h314zM396 840h-75l-112 134h84z" />
<glyph unicode="&#xc1;" horiz-adv-x="691" d="M163 208l-77 -208h-83l300 790h98l287 -790h-83l-76 208h-366zM504 280l-130 360l-23 71l-25 -71l-136 -360h314zM306 838l102 134h84l-113 -134h-73z" />
<glyph unicode="&#xc2;" horiz-adv-x="691" d="M163 208l-77 -208h-83l300 790h98l287 -790h-83l-76 208h-366zM504 280l-130 360l-23 71l-25 -71l-136 -360h314zM501 841h-69l-87 84l-87 -84h-67l112 132h86z" />
<glyph unicode="&#xc3;" horiz-adv-x="691" d="M163 208l-77 -208h-83l300 790h98l287 -790h-83l-76 208h-366zM504 280l-130 360l-23 71l-25 -71l-136 -360h314zM284 905q-40 0 -41 -61h-54q3 117 91 117q50 0 89 -41q26 -28 43 -28q41 0 44 66l52 -2q-3 -117 -86 -117q-51 0 -87 36l-7.5 7.5t-8 7t-7.5 5.5t-8.5 5.5 t-8.5 3t-11 1.5z" />
<glyph unicode="&#xc4;" horiz-adv-x="691" d="M163 208l-77 -208h-83l300 790h98l287 -790h-83l-76 208h-366zM504 280l-130 360l-23 71l-25 -71l-136 -360h314zM469 839h-76v106h76v-106zM307 839h-77v106h77v-106z" />
<glyph unicode="&#xc5;" horiz-adv-x="691" d="M294 766q-31 28 -31 69q0 37 25.5 63.5t61.5 26.5q37 0 63 -26.5t26 -63.5q0 -40 -30 -68l279 -767h-83l-76 208h-366l-77 -208h-83zM350 876q-16 0 -27 -12t-11 -29q0 -16 11 -29t27 -13t28 13t12 29q0 17 -12 29t-28 12zM504 280l-130 360l-23 71l-25 -71l-136 -360 h314z" />
<glyph unicode="&#xc6;" horiz-adv-x="998" d="M968 790v-76h-419v-277h401v-76h-401v-286h422v-75h-500v201h-276l-114 -201h-84l448 790h523zM471 699q-40 -78 -42 -82l-199 -347h241v429z" />
<glyph unicode="&#xc7;" horiz-adv-x="742" d="M343 -7q-126 9 -197 80q-100 100 -100 325q0 220 90 311q88 91 248 91q183 0 262 -112q51 -65 58 -174h-83q-8 92 -56 142q-59 65 -184 65q-117 0 -181 -65q-70 -71 -70 -259q0 -191 79 -270q61 -62 179 -62q112 0 172 62q52 53 63 145h81q-10 -106 -76 -185 q-81 -96 -237 -96h-1v-17q107 -2 107 -80q0 -52 -55.5 -74t-145.5 10v42q61 -29 102 -20.5t41 42.5q0 6 -2.5 11.5t-5.5 9t-9 7t-11 5.5t-13 4t-12.5 2.5t-13 1.5t-11.5 1h-11l-7 1v56z" />
<glyph unicode="&#xc8;" horiz-adv-x="665" d="M609 0h-515v790h511v-76h-432v-277h415v-76h-415v-286h436v-75zM411 838h-75l-112 134h84z" />
<glyph unicode="&#xc9;" horiz-adv-x="665" d="M609 0h-515v790h511v-76h-432v-277h415v-76h-415v-286h436v-75zM301 838l102 134h84l-113 -134h-73z" />
<glyph unicode="&#xca;" horiz-adv-x="665" d="M609 0h-515v790h511v-76h-432v-277h415v-76h-415v-286h436v-75zM488 841h-69l-87 84l-87 -84h-67l112 132h86z" />
<glyph unicode="&#xcb;" horiz-adv-x="665" d="M609 0h-515v790h511v-76h-432v-277h415v-76h-415v-286h436v-75zM452 839h-76v106h76v-106zM290 839h-77v106h77v-106z" />
<glyph unicode="&#xcc;" horiz-adv-x="270" d="M176 0h-82v790h82v-790zM214 838h-75l-112 134h84z" />
<glyph unicode="&#xcd;" horiz-adv-x="270" d="M176 0h-82v790h82v-790zM64 838l102 134h84l-113 -134h-73z" />
<glyph unicode="&#xce;" horiz-adv-x="270" d="M176 0h-82v790h82v-790zM291 841h-69l-87 84l-87 -84h-67l112 132h86z" />
<glyph unicode="&#xcf;" horiz-adv-x="270" d="M176 0h-82v790h82v-790zM255 839h-76v106h76v-106zM93 839h-77v106h77v-106z" />
<glyph unicode="&#xd0;" horiz-adv-x="735" d="M94 355h-72v77h72v358h313q151 0 216 -71q37 -40 51.5 -112.5t14.5 -200.5q0 -135 -12.5 -209t-46.5 -116q-65 -81 -214 -81h-322v355zM173 432h211v-77h-211v-279h227q61 0 99 12t65 42q27 31 36.5 94.5t10.5 180.5q0 208 -52 259q-27 27 -63 38.5t-94 11.5h-229v-282z " />
<glyph unicode="&#xd1;" horiz-adv-x="753" d="M662 0h-93l-398 673v-673h-77v790h99l393 -666v666h76v-790zM331 905q-40 0 -41 -61h-54q3 117 91 117q50 0 89 -41q26 -28 43 -28q41 0 44 66l52 -2q-3 -117 -86 -117q-51 0 -87 36l-7.5 7.5t-8 7t-7.5 5.5t-8.5 5.5t-8.5 3t-11 1.5z" />
<glyph unicode="&#xd2;" horiz-adv-x="759" d="M380 800q171 0 252 -98q82 -89 82 -304t-89 -315q-75 -93 -246 -93q-166 0 -242 94q-91 98 -91 313q0 214 84 302q84 101 250 101zM381 64q111 0 175 62q77 77 77 270q0 192 -69 261q-67 67 -184 67t-182 -67q-70 -70 -70 -263q0 -190 84 -272q58 -58 169 -58zM458 838 h-75l-112 134h84z" />
<glyph unicode="&#xd3;" horiz-adv-x="759" d="M380 800q171 0 252 -98q82 -89 82 -304t-89 -315q-75 -93 -246 -93q-166 0 -242 94q-91 98 -91 313q0 214 84 302q84 101 250 101zM381 64q111 0 175 62q77 77 77 270q0 192 -69 261q-67 67 -184 67t-182 -67q-70 -70 -70 -263q0 -190 84 -272q58 -58 169 -58zM308 838 l102 134h84l-113 -134h-73z" />
<glyph unicode="&#xd4;" horiz-adv-x="759" d="M380 800q171 0 252 -98q82 -89 82 -304t-89 -315q-75 -93 -246 -93q-166 0 -242 94q-91 98 -91 313q0 214 84 302q84 101 250 101zM381 64q111 0 175 62q77 77 77 270q0 192 -69 261q-67 67 -184 67t-182 -67q-70 -70 -70 -263q0 -190 84 -272q58 -58 169 -58zM535 841 h-69l-87 84l-87 -84h-67l112 132h86z" />
<glyph unicode="&#xd5;" horiz-adv-x="759" d="M380 800q171 0 252 -98q82 -89 82 -304t-89 -315q-75 -93 -246 -93q-166 0 -242 94q-91 98 -91 313q0 214 84 302q84 101 250 101zM381 64q111 0 175 62q77 77 77 270q0 192 -69 261q-67 67 -184 67t-182 -67q-70 -70 -70 -263q0 -190 84 -272q58 -58 169 -58zM318 905 q-40 0 -41 -61h-54q3 117 91 117q50 0 89 -41q26 -28 43 -28q41 0 44 66l52 -2q-3 -117 -86 -117q-51 0 -87 36l-7.5 7.5t-8 7t-7.5 5.5t-8.5 5.5t-8.5 3t-11 1.5z" />
<glyph unicode="&#xd6;" horiz-adv-x="759" d="M380 800q171 0 252 -98q82 -89 82 -304t-89 -315q-75 -93 -246 -93q-166 0 -242 94q-91 98 -91 313q0 214 84 302q84 101 250 101zM381 64q111 0 175 62q77 77 77 270q0 192 -69 261q-67 67 -184 67t-182 -67q-70 -70 -70 -263q0 -190 84 -272q58 -58 169 -58zM499 839 h-76v106h76v-106zM337 839h-77v106h77v-106z" />
<glyph unicode="&#xd7;" horiz-adv-x="557" d="M447 502l-128 -127l128 -128l-42 -43l-127 127l-127 -127l-41 44l127 127l-127 127l42 44l126 -127l127 127z" />
<glyph unicode="&#xd8;" horiz-adv-x="759" d="M622 716q22 -20 39 -50q53 -91 53 -268q0 -215 -89 -315q-75 -93 -246 -93q-127 0 -201 56l-60 -89h-62q67 97 81 122q-25 28 -43 64q-48 90 -48 254q0 214 84 302q84 101 250 101q124 0 203 -53l39 57h58zM185 155l355 524q-60 45 -160 45q-117 0 -182 -67 q-70 -70 -70 -263q0 -106 28 -182q11 -30 29 -57zM575 642l-354 -528q39 -28 74 -39t86 -11q111 0 175 62q77 77 77 270q0 115 -28 191q-15 36 -30 55z" />
<glyph unicode="&#xd9;" horiz-adv-x="745" d="M662 218q0 -108 -78.5 -167.5t-208.5 -59.5q-134 0 -213 57t-79 173v569h80v-568q0 -76 54.5 -117t159.5 -41q90 0 147.5 41.5t57.5 115.5v569h80v-572zM451 838h-75l-112 134h84z" />
<glyph unicode="&#xda;" horiz-adv-x="745" d="M662 218q0 -108 -78.5 -167.5t-208.5 -59.5q-134 0 -213 57t-79 173v569h80v-568q0 -76 54.5 -117t159.5 -41q90 0 147.5 41.5t57.5 115.5v569h80v-572zM301 838l102 134h84l-113 -134h-73z" />
<glyph unicode="&#xdb;" horiz-adv-x="745" d="M662 218q0 -108 -78.5 -167.5t-208.5 -59.5q-134 0 -213 57t-79 173v569h80v-568q0 -76 54.5 -117t159.5 -41q90 0 147.5 41.5t57.5 115.5v569h80v-572zM528 841h-69l-87 84l-87 -84h-67l112 132h86z" />
<glyph unicode="&#xdc;" horiz-adv-x="745" d="M662 218q0 -108 -78.5 -167.5t-208.5 -59.5q-134 0 -213 57t-79 173v569h80v-568q0 -76 54.5 -117t159.5 -41q90 0 147.5 41.5t57.5 115.5v569h80v-572zM492 839h-76v106h76v-106zM330 839h-77v106h77v-106z" />
<glyph unicode="&#xdd;" horiz-adv-x="704" d="M702 790l-315 -521v-269h-82v268l-302 522h87l257 -441l271 441h84zM281 838l102 134h84l-113 -134h-73z" />
<glyph unicode="&#xde;" horiz-adv-x="704" d="M176 790v-124h262q162 0 197 -109q23 -53 23 -139q0 -98 -23 -143q-44 -103 -198 -103h-262v-172h-81v790h82zM577 417q0 59 -8 85q-12 47 -45 68t-96 21h-253v-345h252q116 0 140 80q10 30 10 91z" />
<glyph unicode="&#xdf;" horiz-adv-x="813" d="M311 734q-113 -1 -113 -106v-628h-76v481h-106v69h106v87q0 167 195 167q71 0 122.5 -37.5t51.5 -104.5q0 -30 -12.5 -54.5t-30 -41.5t-34.5 -33.5t-29.5 -38.5t-12.5 -48q0 -42 34 -61t100 -32q10 -2 48 -9.5t52 -9.5q187 -32 187 -171q0 -81 -60.5 -126.5t-186.5 -45.5 q-221 0 -250 122q-3 14 -6 64h77q0 -32 4 -48q22 -77 176 -77q91 0 131 27t40 78q0 46 -35.5 73t-112.5 40q-19 3 -89 16q-86 15 -134.5 49.5t-48.5 100.5q0 29 11.5 52.5t28 40t33.5 32.5t28.5 37.5t11.5 46.5q0 37 -24 63t-76 26z" />
<glyph unicode="&#xe0;" horiz-adv-x="609" d="M551 0h-71q-2 0 -4.5 13t-4 32.5t-0.5 33.5q-52 -85 -219 -85q-99 0 -152 38t-55 106v25q2 72 65 117.5t200 48.5q76 2 160 -7q0 57 -2 78q-3 50 -40.5 72.5t-118.5 22.5q-97 0 -133 -36q-33 -32 -33 -81h-71q5 75 39 113q61 70 197 70q115 0 170 -35.5t61 -107.5 q3 -37 3 -153q-1 -37 -1 -154q0 -83 10 -111zM471 266q-80 8 -135 7q-129 -3 -182 -42q-34 -25 -34 -73q0 -40 24 -64q38 -38 129 -38q99 0 144 38q48 40 52 107q2 11 2 65zM375 598h-75l-112 134h84z" />
<glyph unicode="&#xe1;" horiz-adv-x="609" d="M551 0h-71q-2 0 -4.5 13t-4 32.5t-0.5 33.5q-52 -85 -219 -85q-99 0 -152 38t-55 106v25q2 72 65 117.5t200 48.5q76 2 160 -7q0 57 -2 78q-3 50 -40.5 72.5t-118.5 22.5q-97 0 -133 -36q-33 -32 -33 -81h-71q5 75 39 113q61 70 197 70q115 0 170 -35.5t61 -107.5 q3 -37 3 -153q-1 -37 -1 -154q0 -83 10 -111zM471 266q-80 8 -135 7q-129 -3 -182 -42q-34 -25 -34 -73q0 -40 24 -64q38 -38 129 -38q99 0 144 38q48 40 52 107q2 11 2 65zM243 598l102 134h84l-113 -134h-73z" />
<glyph unicode="&#xe2;" horiz-adv-x="609" d="M551 0h-71q-2 0 -4.5 13t-4 32.5t-0.5 33.5q-52 -85 -219 -85q-99 0 -152 38t-55 106v25q2 72 65 117.5t200 48.5q76 2 160 -7q0 57 -2 78q-3 50 -40.5 72.5t-118.5 22.5q-97 0 -133 -36q-33 -32 -33 -81h-71q5 75 39 113q61 70 197 70q115 0 170 -35.5t61 -107.5 q3 -37 3 -153q-1 -37 -1 -154q0 -83 10 -111zM471 266q-80 8 -135 7q-129 -3 -182 -42q-34 -25 -34 -73q0 -40 24 -64q38 -38 129 -38q99 0 144 38q48 40 52 107q2 11 2 65zM468 601h-69l-87 84l-87 -84h-67l112 132h86z" />
<glyph unicode="&#xe3;" horiz-adv-x="609" d="M551 0h-71q-2 0 -4.5 13t-4 32.5t-0.5 33.5q-52 -85 -219 -85q-99 0 -152 38t-55 106v25q2 72 65 117.5t200 48.5q76 2 160 -7q0 57 -2 78q-3 50 -40.5 72.5t-118.5 22.5q-97 0 -133 -36q-33 -32 -33 -81h-71q5 75 39 113q61 70 197 70q115 0 170 -35.5t61 -107.5 q3 -37 3 -153q-1 -37 -1 -154q0 -83 10 -111zM471 266q-80 8 -135 7q-129 -3 -182 -42q-34 -25 -34 -73q0 -40 24 -64q38 -38 129 -38q99 0 144 38q48 40 52 107q2 11 2 65zM247 665q-40 0 -41 -61h-54q3 117 91 117q50 0 89 -41q26 -28 43 -28q41 0 44 66l52 -2 q-3 -117 -86 -117q-51 0 -87 36l-7.5 7.5t-8 7t-7.5 5.5t-8.5 5.5t-8.5 3t-11 1.5z" />
<glyph unicode="&#xe4;" horiz-adv-x="609" d="M551 0h-71q-2 0 -4.5 13t-4 32.5t-0.5 33.5q-52 -85 -219 -85q-99 0 -152 38t-55 106v25q2 72 65 117.5t200 48.5q76 2 160 -7q0 57 -2 78q-3 50 -40.5 72.5t-118.5 22.5q-97 0 -133 -36q-33 -32 -33 -81h-71q5 75 39 113q61 70 197 70q115 0 170 -35.5t61 -107.5 q3 -37 3 -153q-1 -37 -1 -154q0 -83 10 -111zM471 266q-80 8 -135 7q-129 -3 -182 -42q-34 -25 -34 -73q0 -40 24 -64q38 -38 129 -38q99 0 144 38q48 40 52 107q2 11 2 65zM436 599h-76v106h76v-106zM274 599h-77v106h77v-106z" />
<glyph unicode="&#xe5;" horiz-adv-x="609" d="M551 0h-71q-2 0 -4.5 13t-4 32.5t-0.5 33.5q-52 -85 -219 -85q-99 0 -152 38t-55 106v25q2 72 65 117.5t200 48.5q76 2 160 -7q0 57 -2 78q-3 50 -40.5 72.5t-118.5 22.5q-97 0 -133 -36q-33 -32 -33 -81h-71q5 75 39 113q61 70 197 70q115 0 170 -35.5t61 -107.5 q3 -37 3 -153q-1 -37 -1 -154q0 -83 10 -111zM471 266q-80 8 -135 7q-129 -3 -182 -42q-34 -25 -34 -73q0 -40 24 -64q38 -38 129 -38q99 0 144 38q48 40 52 107q2 11 2 65zM315 779q37 0 63 -26.5t26 -63.5t-26 -64t-63 -27q-36 0 -61.5 27t-25.5 64t25.5 63.5t61.5 26.5z M315 730q-16 0 -27 -12t-11 -29q0 -16 11 -29t27 -13t28 13t12 29q0 17 -12 29t-28 12z" />
<glyph unicode="&#xe6;" horiz-adv-x="1032" d="M504 106q-32 -61 -88.5 -86.5t-160.5 -25.5q-102 0 -155 38t-55 106v25q5 159 265 166q76 2 160 -7q0 36 -2 78q-4 49 -41.5 71.5t-121.5 22.5q-91 0 -131 -37q-32 -32 -32 -89h-70q0 74 38 118q60 75 198 75q189 0 211 -117q16 51 75 84t149 33q141 0 213 -87 q59 -69 52 -224h-467q0 -64 10 -93.5t33 -51.5q50 -48 157 -48q98 0 145 37q38 29 45 74h73q-11 -75 -69 -123q-65 -54 -194 -54q-195 0 -237 115zM932 304q0 98 -41 140q-52 49 -153 49q-97 0 -148 -48q-50 -48 -50 -141h392zM471 259q-8 5 -50 8q-92 5 -132 -2 q-116 -9 -149 -56q-21 -28 -15 -67q8 -39 51 -60q50 -28 134 -19q95 8 127 54q16 18 25 62t9 80z" />
<glyph unicode="&#xe7;" horiz-adv-x="616" d="M289 -8q-249 12 -249 284q0 138 71 211.5t204 73.5q77 0 132 -20.5t81 -54t37 -65.5t11 -66h-74q0 58 -46 96.5t-139 38.5q-201 0 -201 -215q0 -113 47.5 -164t155.5 -51q169 0 185 128h72q-6 -84 -64 -138t-176 -59v-17q107 -2 107 -80q0 -52 -55.5 -74t-145.5 10v42 q61 -29 102 -20.5t41 42.5q0 6 -2.5 11.5t-5.5 9t-9 7t-11 5.5t-13 4t-12.5 2.5t-13 1.5t-11.5 1h-11l-7 1v55z" />
<glyph unicode="&#xe8;" horiz-adv-x="605" d="M576 168q-13 -77 -76.5 -127t-183.5 -50q-277 0 -277 286q0 137 72.5 210.5t199.5 73.5q146 0 211 -83.5t58 -232.5h-467q6 -188 204 -188q95 0 138 33t48 78h73zM504 309q0 184 -193 184q-100 0 -149 -50.5t-49 -133.5h391zM381 598h-75l-112 134h84z" />
<glyph unicode="&#xe9;" horiz-adv-x="605" d="M576 168q-13 -77 -76.5 -127t-183.5 -50q-277 0 -277 286q0 137 72.5 210.5t199.5 73.5q146 0 211 -83.5t58 -232.5h-467q6 -188 204 -188q95 0 138 33t48 78h73zM504 309q0 184 -193 184q-100 0 -149 -50.5t-49 -133.5h391zM253 598l102 134h84l-113 -134h-73z" />
<glyph unicode="&#xea;" horiz-adv-x="605" d="M576 168q-13 -77 -76.5 -127t-183.5 -50q-277 0 -277 286q0 137 72.5 210.5t199.5 73.5q146 0 211 -83.5t58 -232.5h-467q6 -188 204 -188q95 0 138 33t48 78h73zM504 309q0 184 -193 184q-100 0 -149 -50.5t-49 -133.5h391zM467 601h-69l-87 84l-87 -84h-67l112 132h86z " />
<glyph unicode="&#xeb;" horiz-adv-x="605" d="M576 168q-13 -77 -76.5 -127t-183.5 -50q-277 0 -277 286q0 137 72.5 210.5t199.5 73.5q146 0 211 -83.5t58 -232.5h-467q6 -188 204 -188q95 0 138 33t48 78h73zM504 309q0 184 -193 184q-100 0 -149 -50.5t-49 -133.5h391zM426 599h-76v106h76v-106zM264 599h-77v106 h77v-106z" />
<glyph unicode="&#xec;" horiz-adv-x="227" d="M157 0h-75q-6 4 -6 44v506h76v-503q0 -44 5 -47zM162 598h-75l-112 134h84z" />
<glyph unicode="&#xed;" horiz-adv-x="227" d="M157 0h-75q-6 4 -6 44v506h76v-503q0 -44 5 -47zM68 598l102 134h84l-113 -134h-73z" />
<glyph unicode="&#xee;" horiz-adv-x="227" d="M157 0h-75q-6 4 -6 44v506h76v-503q0 -44 5 -47zM269 601h-69l-87 84l-87 -84h-67l112 132h86z" />
<glyph unicode="&#xef;" horiz-adv-x="227" d="M157 0h-75q-6 4 -6 44v506h76v-503q0 -44 5 -47zM233 599h-76v106h76v-106zM71 599h-77v106h77v-106z" />
<glyph unicode="&#xf0;" horiz-adv-x="639" d="M500 589q-38 -25 -64 -25q-78 0 -87 92l34 8q3 -37 16.5 -51t36.5 -14q26 0 56 25q-8 23 -15 34q-47 78 -163 78t-150 -70q-1 -4 -2.5 -11t-1.5 -8h-76q1 2 3.5 14.5t4.5 19.5q42 120 235 120q79 0 134.5 -30.5t81.5 -80.5q3 -6 5 -10.5t5 -10t5 -9.5q20 16 31.5 20.5 t31.5 4.5q78 0 86 -97l-32 -8q-7 68 -55 68q-11 0 -20 -3t-12.5 -5.5t-17.5 -13.5q33 -82 33 -208q0 -158 -17 -221q-50 -206 -268 -206q-194 0 -254 137q-30 61 -27.5 140.5t36.5 137.5q65 118 226 118q157 0 226 -101q0 98 -25 166zM138 155q46 -94 180 -94q80 0 130 42.5 t65 114.5q9 49 11 129q-6 14 -19 30.5t-36.5 36.5t-63 33t-86.5 13q-120 0 -170 -83q-26 -42 -29.5 -109.5t18.5 -112.5z" />
<glyph unicode="&#xf1;" horiz-adv-x="613" d="M551 0h-73q-4 0 -4.5 48t-0.5 315q0 126 -150 126q-72 0 -123.5 -36.5t-51.5 -102.5v-350h-75v550h72v-85q37 96 203 96q96 0 148.5 -50t52.5 -135q0 -108 0.5 -179.5t1 -137t0.5 -41.5q1 -18 0 -18zM257 665q-40 0 -41 -61h-54q3 117 91 117q50 0 89 -41q26 -28 43 -28 q41 0 44 66l52 -2q-3 -117 -86 -117q-51 0 -87 36l-7.5 7.5t-8 7t-7.5 5.5t-8.5 5.5t-8.5 3t-11 1.5z" />
<glyph unicode="&#xf2;" horiz-adv-x="638" d="M599 276q0 -133 -74.5 -209t-204.5 -76q-131 0 -206 75t-75 210q0 123 71 204t210 81q137 0 208 -76.5t71 -208.5zM525 276q0 214 -206 214q-102 0 -154 -59t-52 -155q0 -105 52.5 -160.5t154.5 -55.5q95 0 150 55t55 161zM397 598h-75l-112 134h84z" />
<glyph unicode="&#xf3;" horiz-adv-x="638" d="M599 276q0 -133 -74.5 -209t-204.5 -76q-131 0 -206 75t-75 210q0 123 71 204t210 81q137 0 208 -76.5t71 -208.5zM525 276q0 214 -206 214q-102 0 -154 -59t-52 -155q0 -105 52.5 -160.5t154.5 -55.5q95 0 150 55t55 161zM259 598l102 134h84l-113 -134h-73z" />
<glyph unicode="&#xf4;" horiz-adv-x="638" d="M599 276q0 -133 -74.5 -209t-204.5 -76q-131 0 -206 75t-75 210q0 123 71 204t210 81q137 0 208 -76.5t71 -208.5zM525 276q0 214 -206 214q-102 0 -154 -59t-52 -155q0 -105 52.5 -160.5t154.5 -55.5q95 0 150 55t55 161zM474 601h-69l-87 84l-87 -84h-67l112 132h86z " />
<glyph unicode="&#xf5;" horiz-adv-x="638" d="M599 276q0 -133 -74.5 -209t-204.5 -76q-131 0 -206 75t-75 210q0 123 71 204t210 81q137 0 208 -76.5t71 -208.5zM525 276q0 214 -206 214q-102 0 -154 -59t-52 -155q0 -105 52.5 -160.5t154.5 -55.5q95 0 150 55t55 161zM257 665q-40 0 -41 -61h-54q3 117 91 117 q50 0 89 -41q26 -28 43 -28q41 0 44 66l52 -2q-3 -117 -86 -117q-51 0 -87 36l-7.5 7.5t-8 7t-7.5 5.5t-8.5 5.5t-8.5 3t-11 1.5z" />
<glyph unicode="&#xf6;" horiz-adv-x="638" d="M599 276q0 -133 -74.5 -209t-204.5 -76q-131 0 -206 75t-75 210q0 123 71 204t210 81q137 0 208 -76.5t71 -208.5zM525 276q0 214 -206 214q-102 0 -154 -59t-52 -155q0 -105 52.5 -160.5t154.5 -55.5q95 0 150 55t55 161zM438 599h-76v106h76v-106zM276 599h-77v106h77 v-106z" />
<glyph unicode="&#xf7;" horiz-adv-x="569" d="M319 538h-67v89h67v-89zM525 375h-480v59h480v-59zM319 180h-66v90h66v-90z" />
<glyph unicode="&#xf8;" horiz-adv-x="637" d="M115 57q-22 24 -35 47q-41 68 -41 172q0 138 73 211q71 74 208 74q101 0 163 -36l41 51h56l-60 -76q21 -19 34 -43q45 -68 45 -181q0 -135 -74 -212q-71 -73 -207 -73q-107 0 -169 41l-46 -57h-53zM159 117l280 348q-45 25 -120 25q-101 0 -154 -56q-52 -52 -52 -158 q0 -74 21 -120q11 -24 25 -39zM476 440l-285 -351q44 -29 128 -29q104 0 151 51q55 57 55 165q0 77 -26 131q-12 22 -23 33z" />
<glyph unicode="&#xf9;" horiz-adv-x="613" d="M547 0q-3 18 -3 96v454h-74v-367q0 -57 -48 -91.5t-128 -34.5q-150 0 -150 119q0 374 -2 374v0v0h-1v0h-1h-1h-1h-1h-1h-1h-1h-1h-1h-1h-1h-1h-1h-1h-1h-1h-1h-1h-2h-1h-1h-1h-2h-1h-1h-2h-1h-1h-2h-1h-2h-1h-2h-1h-2h-1h-2h-1h-2h-2h-1h-2h-2h-1h-2h-2h-1h-2h-2h-2h-9 q4 -3 4 -399q0 -159 199 -159q84 0 131.5 19t71.5 63l3 -74h73zM367 598h-75l-112 134h84z" />
<glyph unicode="&#xfa;" horiz-adv-x="613" d="M547 0q-3 18 -3 96v454h-74v-367q0 -57 -48 -91.5t-128 -34.5q-150 0 -150 119q0 374 -2 374v0v0h-1v0h-1h-1h-1h-1h-1h-1h-1h-1h-1h-1h-1h-1h-1h-1h-1h-1h-1h-1h-2h-1h-1h-1h-2h-1h-1h-2h-1h-1h-2h-1h-2h-1h-2h-1h-2h-1h-2h-1h-2h-2h-1h-2h-2h-1h-2h-2h-1h-2h-2h-2h-9 q4 -3 4 -399q0 -159 199 -159q84 0 131.5 19t71.5 63l3 -74h73zM247 598l102 134h84l-113 -134h-73z" />
<glyph unicode="&#xfb;" horiz-adv-x="613" d="M547 0q-3 18 -3 96v454h-74v-367q0 -57 -48 -91.5t-128 -34.5q-150 0 -150 119q0 374 -2 374v0v0h-1v0h-1h-1h-1h-1h-1h-1h-1h-1h-1h-1h-1h-1h-1h-1h-1h-1h-1h-1h-2h-1h-1h-1h-2h-1h-1h-2h-1h-1h-2h-1h-2h-1h-2h-1h-2h-1h-2h-1h-2h-2h-1h-2h-2h-1h-2h-2h-1h-2h-2h-2h-9 q4 -3 4 -399q0 -159 199 -159q84 0 131.5 19t71.5 63l3 -74h73zM462 601h-69l-87 84l-87 -84h-67l112 132h86z" />
<glyph unicode="&#xfc;" horiz-adv-x="613" d="M547 0q-3 18 -3 96v454h-74v-367q0 -57 -48 -91.5t-128 -34.5q-150 0 -150 119q0 374 -2 374v0v0h-1v0h-1h-1h-1h-1h-1h-1h-1h-1h-1h-1h-1h-1h-1h-1h-1h-1h-1h-1h-2h-1h-1h-1h-2h-1h-1h-2h-1h-1h-2h-1h-2h-1h-2h-1h-2h-1h-2h-1h-2h-2h-1h-2h-2h-1h-2h-2h-1h-2h-2h-2h-9 q4 -3 4 -399q0 -159 199 -159q84 0 131.5 19t71.5 63l3 -74h73zM426 599h-76v106h76v-106zM264 599h-77v106h77v-106z" />
<glyph unicode="&#xfd;" horiz-adv-x="588" d="M579 550l-321 -723h-79l77 174l-246 549h81q206 -464 206 -467l205 467h77zM223 598l102 134h84l-113 -134h-73z" />
<glyph unicode="&#xfe;" horiz-adv-x="640" d="M607 280q0 -149 -66 -218q-62 -67 -183 -67q-81 0 -136.5 26t-74.5 75l1 -269h-74v970h73v-345q15 49 72 79t137 30q125 0 188 -69q63 -66 63 -212zM531 276q0 118 -48 166q-50 47 -146 47q-93 0 -140 -44q-29 -27 -40 -65.5t-11 -103.5t12 -103.5t39 -65.5 q44 -43 141 -43q100 0 146 50q47 50 47 162z" />
<glyph unicode="&#xff;" horiz-adv-x="588" d="M579 550l-321 -723h-79l77 174l-246 549h81q206 -464 206 -467l205 467h77zM414 599h-76v106h76v-106zM252 599h-77v106h77v-106z" />
<glyph unicode="&#x131;" horiz-adv-x="227" d="M157 0h-75q-6 4 -6 44v506h76v-503q0 -44 5 -47z" />
<glyph unicode="&#x141;" horiz-adv-x="608" d="M175 297v-221h412v-76h-493v268l-54 -22v64l54 21v459h81v-429l222 85v-64z" />
<glyph unicode="&#x142;" horiz-adv-x="228" d="M151 283v-231q0 -48 3 -52h-75q-3 3 -3 31v224l-64 -25v67l64 25v421q0 39 -2 55h74q3 -9 3 -46v-402l65 26v-67z" />
<glyph unicode="&#x152;" horiz-adv-x="1103" d="M569 790h493v-74h-427v-280h410v-74h-410v-288h431v-74h-498v0v1v1v1v1v1v1v1v2v1v1v2v1v2v1v2v1v2v2v2v1v2v9q-61 -48 -194 -48q-90 0 -161.5 35t-110.5 106q-57 100 -57 266q0 173 58 272q75 131 269 131q131 0 197 -62v52zM382 65q70 0 115.5 14.5t58.5 34.5 q2 4 2 286q0 249 -2 254q-55 69 -175 69q-144 0 -202 -93q-51 -83 -51 -236q0 -145 49 -224q65 -105 205 -105z" />
<glyph unicode="&#x153;" horiz-adv-x="1097" d="M318 -9q-127 0 -203 70.5t-76 214.5q0 129 67 207t214 78q185 0 241 -131q55 131 234 131q145 0 210 -83.5t59 -228.5h-467q0 -101 47 -147.5t153 -46.5q90 0 136 31.5t54 81.5h73q-10 -77 -77 -127t-186 -50q-94 0 -159.5 33t-83.5 94q-24 -62 -87 -94.5t-149 -32.5z M987 305q0 95 -46 141.5t-147 46.5q-100 0 -149 -48.5t-49 -139.5h391zM525 276q0 104 -46.5 159t-159.5 55q-110 0 -158 -58.5t-48 -155.5q0 -218 206 -218t206 218z" />
<glyph unicode="&#x160;" horiz-adv-x="719" d="M664 214q0 -102 -72.5 -163t-217.5 -61q-157 0 -236.5 62t-84.5 176h82q9 -166 237 -166q208 0 208 142q0 53 -28.5 86.5t-74.5 48.5t-101 25t-110 22.5t-101 33t-74.5 65t-28.5 110.5q0 90 69.5 147t213.5 57q148 0 219 -57t88 -169h-82q-16 82 -69 117.5t-160 35.5 q-99 0 -147.5 -34.5t-48.5 -91.5q0 -41 18 -69.5t48 -44t68.5 -26t82 -17.5t86.5 -15t81.5 -22.5t68.5 -37t48 -62t18 -92.5zM204 973h66l89 -88l89 88h67l-113 -132h-85z" />
<glyph unicode="&#x161;" horiz-adv-x="593" d="M547 151q0 -81 -58.5 -120.5t-186.5 -39.5q-146 0 -199.5 37t-53.5 132h74q0 -60 37.5 -82.5t143.5 -22.5q92 0 130.5 23t38.5 70q0 33 -23 53.5t-59.5 30t-80.5 16t-88 16.5t-80.5 25.5t-59.5 48.5t-23 81q0 66 57 104.5t169 38.5q123 0 182.5 -41.5t59.5 -130.5h-74 q0 25 -4.5 41t-19.5 32.5t-50.5 24.5t-91.5 8q-154 0 -154 -81q0 -41 42.5 -62.5t103.5 -30t122 -21t103.5 -49.5t42.5 -101zM141 733h66l89 -88l89 88h67l-113 -132h-85z" />
<glyph unicode="&#x178;" horiz-adv-x="704" d="M702 790l-315 -521v-269h-82v268l-302 522h87l257 -441l271 441h84zM472 839h-76v106h76v-106zM310 839h-77v106h77v-106z" />
<glyph unicode="&#x17d;" horiz-adv-x="623" d="M599 0h-564v71l454 644h-433v75h529v-68l-458 -648h472v-74zM156 973h66l89 -88l89 88h67l-113 -132h-85z" />
<glyph unicode="&#x17e;" horiz-adv-x="513" d="M490 0h-459v63l354 418h-348v69h438v-69l-349 -413h364v-68zM101 733h66l89 -88l89 88h67l-113 -132h-85z" />
<glyph unicode="&#x192;" horiz-adv-x="443" d="M174 -9q-8 -65 -49 -103t-104 -38q-35 0 -95 7v70q37 -5 79 -5q37 1 62.5 24t28.5 58q0 1 11.5 116.5t23.5 235t12 126.5h-103l2 73h109l11 113q15 137 178 137q40 0 101 -11l-1 -67q-60 10 -88 10q-106 -1 -114 -80l-10 -105h183l-1 -70h-189q0 -6 -12 -128 t-23.5 -241.5t-11.5 -121.5z" />
<glyph unicode="&#x2c6;" d="M365 601h-69l-87 84l-87 -84h-67l112 132h86z" />
<glyph unicode="&#x2c7;" d="M54 733h66l89 -88l89 88h67l-113 -132h-85z" />
<glyph unicode="&#x2d8;" d="M356 726q0 -53 -39 -91.5t-107 -38.5q-67 0 -107 38.5t-40 91.5h58q0 -34 24.5 -57.5t63.5 -23.5q40 0 64 23.5t24 57.5h59z" />
<glyph unicode="&#x2d9;" d="M248 601h-76v101h76v-101z" />
<glyph unicode="&#x2da;" d="M209 779q37 0 63 -26.5t26 -63.5t-26 -64t-63 -27q-36 0 -61.5 27t-25.5 64t25.5 63.5t61.5 26.5zM209 730q-16 0 -27 -12t-11 -29q0 -16 11 -29t27 -13t28 13t12 29q0 17 -12 29t-28 12z" />
<glyph unicode="&#x2db;" horiz-adv-x="427" d="M181 -87q0 -19 23.5 -33t65.5 -17l4 -46q-74 7 -112 32.5t-38 63.5q0 35 32 58t94 29l8 -31q-77 -16 -77 -56z" />
<glyph unicode="&#x2dc;" d="M148 665q-40 0 -41 -61h-54q3 117 91 117q50 0 89 -41q26 -28 43 -28q41 0 44 66l52 -2q-3 -117 -86 -117q-51 0 -87 36l-7.5 7.5t-8 7t-7.5 5.5t-8.5 5.5t-8.5 3t-11 1.5z" />
<glyph unicode="&#x2dd;" d="M229 598l91 134h68l-101 -134h-58zM109 598l91 134h68l-101 -134h-58z" />
<glyph unicode="&#x394;" horiz-adv-x="544" d="M404 540q3 5 10 13.5t12.5 15t8.5 11.5q12 17 25 1q13 -14 3 -24l-8 -4q-20 -3 -51 -13zM142 534q-31 10 -51 13q-16 3 -10 20q5 16 18 15q7 -1 12 -8q3 -5 8.5 -11.5t12.5 -15t10 -13.5zM256 515v219h-251v61h534v-61h-252v-219q42 -6 70.5 -38.5t28.5 -75.5 t-28.5 -75.5t-71.5 -37.5v-217h253v-66h-534v66h251l-1 217q-42 6 -70 38t-28 75t28.5 75.5t70.5 38.5zM406 269q31 -10 51 -13q16 -3 10 -20q-5 -16 -18 -15q-7 1 -12 8q-3 5 -8.5 11.5t-12.5 15t-10 13.5zM133 262q-3 -5 -10 -13.5t-12.5 -15t-8.5 -11.5q-12 -17 -25 -1 q-13 14 -3 24l8 4q20 3 51 13zM287 486v-47l-16 -34l-14 34v47q-30 -6 -50.5 -30t-20.5 -55t20 -54.5t50 -29.5v47l15 33l15 -33v-47q30 5 51 29t21 55t-20.5 55t-50.5 30z" />
<glyph unicode="&#x3a9;" horiz-adv-x="544" d="M404 540q3 5 10 13.5t12.5 15t8.5 11.5q12 17 25 1q13 -14 3 -24l-8 -4q-20 -3 -51 -13zM142 534q-31 10 -51 13q-16 3 -10 20q5 16 18 15q7 -1 12 -8q3 -5 8.5 -11.5t12.5 -15t10 -13.5zM256 515v219h-251v61h534v-61h-252v-219q42 -6 70.5 -38.5t28.5 -75.5 t-28.5 -75.5t-71.5 -37.5v-217h253v-66h-534v66h251l-1 217q-42 6 -70 38t-28 75t28.5 75.5t70.5 38.5zM406 269q31 -10 51 -13q16 -3 10 -20q-5 -16 -18 -15q-7 1 -12 8q-3 5 -8.5 11.5t-12.5 15t-10 13.5zM133 262q-3 -5 -10 -13.5t-12.5 -15t-8.5 -11.5q-12 -17 -25 -1 q-13 14 -3 24l8 4q20 3 51 13zM287 486v-47l-16 -34l-14 34v47q-30 -6 -50.5 -30t-20.5 -55t20 -54.5t50 -29.5v47l15 33l15 -33v-47q30 5 51 29t21 55t-20.5 55t-50.5 30z" />
<glyph unicode="&#x3bc;" horiz-adv-x="615" d="M549 0h-71l-3 79q-48 -81 -182 -83q-109 -3 -148 58v-227h-73v288v435v0h1v0h1h1h1h1h1h1h1h1h1h1h1h1h1h1h1h1h2h1h1h1h2h1h1h2h1h1h2h1h2h1h2h1h2h1h2h2h1h2h2h1h2h2h1h2h2h2h2h8q1 0 1 -381q0 -121 150 -121q81 0 129.5 35t48.5 93v374h73v-453q0 -85 2 -97z" />
<glyph unicode="&#x3c0;" horiz-adv-x="648" d="M613 492q-5 -107 -83.5 -174.5t-204.5 -67.5q-127 0 -207.5 69.5t-82.5 172.5q-2 26 0 64q6 110 86 177t204 67q121 0 201 -67t87 -179q2 -29 0 -62zM581 500q2 25 0 45q-4 105 -74 163.5t-182 58.5q-111 0 -182.5 -55t-75.5 -163q-2 -34 0 -49q1 -99 72 -159t186 -60 t184 60t72 159zM255 488v-132h-61v327h172q57 0 90 -28q28 -25 28 -70q0 -43 -27 -70q-24 -27 -84 -27h-118zM409 550q14 14 14 33q0 18 -14 32q-15 18 -44 18h-110v-99h110q31 0 44 16z" />
<glyph unicode="&#x2013;" horiz-adv-x="510" d="M485 301h-460v78h460v-78z" />
<glyph unicode="&#x2014;" horiz-adv-x="699" d="M654 302h-609v78h609v-78z" />
<glyph unicode="&#x2018;" horiz-adv-x="178" d="M143 706v-134h-103v139l63 90l41 -22l-32 -69l3 -4h28z" />
<glyph unicode="&#x2019;" horiz-adv-x="178" d="M36 661v135h104v-140l-63 -89l-41 21l32 69l-3 4h-29z" />
<glyph unicode="&#x201a;" horiz-adv-x="178" d="M36 0v135h104v-139l-63 -91l-41 21l32 70l-3 4h-29z" />
<glyph unicode="&#x201c;" horiz-adv-x="342" d="M306 702v-130h-100v135l64 94l41 -22l-36 -72l3 -4zM140 703v-131h-100v135l64 94l41 -22l-36 -72l3 -4h28z" />
<glyph unicode="&#x201d;" horiz-adv-x="342" d="M208 665v131h100v-137l-64 -92l-41 21l36 73l-3 4h-28zM42 665v131h100v-137l-64 -92l-40 21l35 73l-3 4h-28z" />
<glyph unicode="&#x201e;" horiz-adv-x="342" d="M208 0v131h100v-136l-64 -93l-41 21l36 73l-3 4h-28zM42 0v131h100v-136l-64 -93l-40 21l35 73l-3 4h-28z" />
<glyph unicode="&#x2020;" horiz-adv-x="350" d="M336 448h-122v-452l-40 -92l-37 92v452h-123v72h123l-1 273h79l-1 -273h122v-72z" />
<glyph unicode="&#x2021;" horiz-adv-x="350" d="M214 334h115v-64h-114v-275l-40 -91l-36 91v275h-117v64h117v138h-117v65h117l-1 256h78l-1 -256h114v-65h-115v-138z" />
<glyph unicode="&#x2022;" horiz-adv-x="343" d="M173 291q-30 0 -51.5 21.5t-21.5 52.5t21.5 52.5t51.5 21.5t51.5 -21.5t21.5 -52.5t-21.5 -52.5t-51.5 -21.5z" />
<glyph unicode="&#x2026;" horiz-adv-x="914" d="M811 0h-104v136h104v-136zM507 0h-105v136h105v-136zM202 0h-104v136h104v-136z" />
<glyph unicode="&#x2030;" horiz-adv-x="1440" d="M471 578q0 -76 -57 -133t-154 -57q-99 0 -156 58t-57 132v34q0 82 55.5 136.5t156.5 54.5q103 0 157.5 -56.5t54.5 -134.5v-34zM761 772l-490 -772h-54l490 772h54zM1411 183q0 -82 -55 -136.5t-158 -54.5q-99 0 -155 57t-56 134v34q0 77 56.5 134t155.5 57 q101 0 156.5 -59t55.5 -132v-34zM949 183q0 -82 -55 -136.5t-158 -54.5q-100 0 -156 57t-56 134v34q0 77 56.5 134t155.5 57q101 0 157 -59t56 -132v-34zM407 580v31q0 53 -40 92t-108 39q-73 0 -110.5 -35.5t-37.5 -94.5v-32q0 -52 40.5 -93t107.5 -41q74 0 111 40t37 94z M1348 185v31q0 52 -39.5 92t-109.5 40q-73 0 -110.5 -38t-37.5 -93v-32q0 -50 40 -91.5t108 -41.5q76 0 112.5 39.5t36.5 93.5zM885 185v31q0 52 -39.5 92t-109.5 40q-73 0 -110.5 -38t-37.5 -93v-32q0 -50 40 -91.5t108 -41.5q76 0 112.5 39.5t36.5 93.5z" />
<glyph unicode="&#x2039;" horiz-adv-x="309" d="M286 112l-259 213v53l259 216v-84l-194 -157l194 -156v-85z" />
<glyph unicode="&#x203a;" horiz-adv-x="309" d="M23 112v85l195 156l-195 157v84l258 -216v-53z" />
<glyph unicode="&#x2044;" horiz-adv-x="215" d="M324 790l-393 -790h-42l390 790h45z" />
<glyph unicode="&#x20ac;" horiz-adv-x="719" d="M180 417v-22v-25h354v-52h-352q5 -92 15 -128q38 -127 193 -127q152 0 191 127q5 16 10 63h83q-3 -42 -15 -81q-28 -93 -94 -137t-176 -44q-114 0 -177 43t-92 139q-15 47 -20 145h-80v52h78v25v22h-78v51h79q2 85 15 143q19 87 91 137.5t185 50.5q115 0 185 -51.5 t90 -136.5q9 -36 12 -84h-83q-3 44 -9 67q-13 61 -64.5 96.5t-131.5 35.5q-81 0 -132.5 -35.5t-64.5 -96.5q-7 -32 -11 -126h353v-51h-354z" />
<glyph unicode="&#x2122;" horiz-adv-x="785" d="M688 513v178q0 50 -56 50q-27 0 -44.5 -16t-17.5 -42v-170h-62v186q0 19 -16 30.5t-40 11.5q-25 0 -45 -17.5t-20 -40.5v-170h-62v285h62v-44q10 24 37.5 36.5t54.5 12.5q33 0 54 -14.5t27 -38.5q7 27 37 40t59 13q46 0 71 -24.5t25 -63.5v-202h-64zM294 741h-119v-119 q0 -25 14 -40t42 -15q48 0 49 1v-54q-6 -2 -73 -2q-42 0 -66.5 23.5t-24.5 61.5v144h-106v57h284v-57z" />
<glyph unicode="&#x2202;" horiz-adv-x="544" d="M404 540q3 5 10 13.5t12.5 15t8.5 11.5q12 17 25 1q13 -14 3 -24l-8 -4q-20 -3 -51 -13zM142 534q-31 10 -51 13q-16 3 -10 20q5 16 18 15q7 -1 12 -8q3 -5 8.5 -11.5t12.5 -15t10 -13.5zM256 515v219h-251v61h534v-61h-252v-219q42 -6 70.5 -38.5t28.5 -75.5 t-28.5 -75.5t-71.5 -37.5v-217h253v-66h-534v66h251l-1 217q-42 6 -70 38t-28 75t28.5 75.5t70.5 38.5zM406 269q31 -10 51 -13q16 -3 10 -20q-5 -16 -18 -15q-7 1 -12 8q-3 5 -8.5 11.5t-12.5 15t-10 13.5zM133 262q-3 -5 -10 -13.5t-12.5 -15t-8.5 -11.5q-12 -17 -25 -1 q-13 14 -3 24l8 4q20 3 51 13zM287 486v-47l-16 -34l-14 34v47q-30 -6 -50.5 -30t-20.5 -55t20 -54.5t50 -29.5v47l15 33l15 -33v-47q30 5 51 29t21 55t-20.5 55t-50.5 30z" />
<glyph unicode="&#x220f;" horiz-adv-x="544" d="M404 540q3 5 10 13.5t12.5 15t8.5 11.5q12 17 25 1q13 -14 3 -24l-8 -4q-20 -3 -51 -13zM142 534q-31 10 -51 13q-16 3 -10 20q5 16 18 15q7 -1 12 -8q3 -5 8.5 -11.5t12.5 -15t10 -13.5zM256 515v219h-251v61h534v-61h-252v-219q42 -6 70.5 -38.5t28.5 -75.5 t-28.5 -75.5t-71.5 -37.5v-217h253v-66h-534v66h251l-1 217q-42 6 -70 38t-28 75t28.5 75.5t70.5 38.5zM406 269q31 -10 51 -13q16 -3 10 -20q-5 -16 -18 -15q-7 1 -12 8q-3 5 -8.5 11.5t-12.5 15t-10 13.5zM133 262q-3 -5 -10 -13.5t-12.5 -15t-8.5 -11.5q-12 -17 -25 -1 q-13 14 -3 24l8 4q20 3 51 13zM287 486v-47l-16 -34l-14 34v47q-30 -6 -50.5 -30t-20.5 -55t20 -54.5t50 -29.5v47l15 33l15 -33v-47q30 5 51 29t21 55t-20.5 55t-50.5 30z" />
<glyph unicode="&#x2211;" horiz-adv-x="544" d="M404 540q3 5 10 13.5t12.5 15t8.5 11.5q12 17 25 1q13 -14 3 -24l-8 -4q-20 -3 -51 -13zM142 534q-31 10 -51 13q-16 3 -10 20q5 16 18 15q7 -1 12 -8q3 -5 8.5 -11.5t12.5 -15t10 -13.5zM256 515v219h-251v61h534v-61h-252v-219q42 -6 70.5 -38.5t28.5 -75.5 t-28.5 -75.5t-71.5 -37.5v-217h253v-66h-534v66h251l-1 217q-42 6 -70 38t-28 75t28.5 75.5t70.5 38.5zM406 269q31 -10 51 -13q16 -3 10 -20q-5 -16 -18 -15q-7 1 -12 8q-3 5 -8.5 11.5t-12.5 15t-10 13.5zM133 262q-3 -5 -10 -13.5t-12.5 -15t-8.5 -11.5q-12 -17 -25 -1 q-13 14 -3 24l8 4q20 3 51 13zM287 486v-47l-16 -34l-14 34v47q-30 -6 -50.5 -30t-20.5 -55t20 -54.5t50 -29.5v47l15 33l15 -33v-47q30 5 51 29t21 55t-20.5 55t-50.5 30z" />
<glyph unicode="&#x2212;" horiz-adv-x="570" d="M525 340h-480v68h480v-68z" />
<glyph unicode="&#x221a;" horiz-adv-x="705" d="M694 791l-372 -809h-98l-212 340h85l174 -275l342 744h81z" />
<glyph unicode="&#x221e;" horiz-adv-x="617" d="M572 374q0 -97 -140 -97q-97 0 -129 46q-32 -46 -122 -46q-77 0 -106.5 25t-29.5 70q0 98 135 98q96 0 123 -47q36 47 128 47q76 0 108.5 -24.5t32.5 -71.5zM519 375q0 56 -89 56q-48 0 -69.5 -16.5t-35.5 -47.5q10 -25 32.5 -38.5t70.5 -13.5q91 0 91 60zM181 315 q45 0 64.5 16t33.5 47q-11 26 -31 39.5t-65 13.5t-65 -14.5t-20 -44.5q0 -31 19.5 -44t63.5 -13z" />
<glyph unicode="&#x222b;" horiz-adv-x="544" d="M404 540q3 5 10 13.5t12.5 15t8.5 11.5q12 17 25 1q13 -14 3 -24l-8 -4q-20 -3 -51 -13zM142 534q-31 10 -51 13q-16 3 -10 20q5 16 18 15q7 -1 12 -8q3 -5 8.5 -11.5t12.5 -15t10 -13.5zM256 515v219h-251v61h534v-61h-252v-219q42 -6 70.5 -38.5t28.5 -75.5 t-28.5 -75.5t-71.5 -37.5v-217h253v-66h-534v66h251l-1 217q-42 6 -70 38t-28 75t28.5 75.5t70.5 38.5zM406 269q31 -10 51 -13q16 -3 10 -20q-5 -16 -18 -15q-7 1 -12 8q-3 5 -8.5 11.5t-12.5 15t-10 13.5zM133 262q-3 -5 -10 -13.5t-12.5 -15t-8.5 -11.5q-12 -17 -25 -1 q-13 14 -3 24l8 4q20 3 51 13zM287 486v-47l-16 -34l-14 34v47q-30 -6 -50.5 -30t-20.5 -55t20 -54.5t50 -29.5v47l15 33l15 -33v-47q30 5 51 29t21 55t-20.5 55t-50.5 30z" />
<glyph unicode="&#x2248;" horiz-adv-x="590" d="M556 523q-1 -52 -35 -84.5t-95 -32.5q-65 0 -131 41q-25 15 -37.5 22t-36.5 14t-50 7q-38 0 -58 -16t-20 -43l-58 1q-1 50 33 82.5t94 32.5q32 0 61 -8t42.5 -15.5t39.5 -23.5q59 -38 113 -38q38 0 58 17.5t22 45.5zM556 375q-1 -52 -35 -84t-95 -32q-65 0 -131 39 q-24 15 -37 22.5t-37 14.5t-50 7q-78 0 -78 -59l-58 1q-1 50 33 82.5t94 32.5q32 0 61 -8t42.5 -15.5t39.5 -23.5q59 -38 113 -38q38 0 58 17t22 45z" />
<glyph unicode="&#x2260;" horiz-adv-x="572" d="M536 301h-286l-54 -93h-41l53 93h-171v58h204l52 87h-256v57h290l54 97h43l-56 -97h168v-57h-200l-52 -87h252v-58z" />
<glyph unicode="&#x2264;" horiz-adv-x="565" d="M519 266l-473 156v54l473 158v-55l-403 -130l403 -127v-56zM520 181h-474v52h474v-52z" />
<glyph unicode="&#x2265;" horiz-adv-x="565" d="M520 422l-473 -156v56l403 127l-403 130v55l473 -158v-54zM520 181h-474v52h474v-52z" />
<glyph unicode="&#x25ca;" horiz-adv-x="667" d="M646 320l-273 -320h-79l-273 320l273 320h79zM562 320l-229 270l-228 -270l228 -271z" />
<glyph unicode="&#xe000;" horiz-adv-x="550" d="M0 550h550v-550h-550v550z" />
<glyph unicode="&#xfb00;" horiz-adv-x="715" d="M197 480v-480h-76v480h-105v70h105v111q0 143 158 143q21 0 106 -9v-69q-49 9 -87 8q-102 0 -102 -80v-105h254v104q0 68 37.5 109.5t120.5 41.5q20 0 106 -9v-69q-54 9 -87 8q-102 0 -102 -79v-106h184v-69h-183v-480h-76v480h-253z" />
<glyph unicode="&#xfb03;" horiz-adv-x="935" d="M782 481h-256v-481h-76v481h-253v-481h-76v480h-105v70h105v111q0 143 158 143q21 0 106 -9v-69q-49 9 -87 8q-102 0 -102 -80v-105h254v104q0 68 37.5 109.5t120.5 41.5q20 0 106 -9v-69q-54 9 -87 8q-102 0 -102 -79v-106h333v-502q0 -42 7 -47h-75q-8 4 -8 44v437z " />
<glyph unicode="&#xfb04;" horiz-adv-x="932" d="M197 480v-480h-76v480h-105v70h105v111q0 143 158 143q21 0 106 -9v-69q-49 9 -87 8q-102 0 -102 -80v-105h254v104q0 68 37.5 109.5t120.5 41.5q27 0 108 -9v-69q-52 9 -89 8q-102 0 -102 -79v-106h185v-69h-184v-480h-76v480h-253zM863 0h-74q-5 3 -5 31v712 q0 43 -3 55h75q2 -12 2 -46v-700q0 -47 5 -52z" />
<glyph horiz-adv-x="0" />
<glyph horiz-adv-x="544" d="M404 540q3 5 10 13.5t12.5 15t8.5 11.5q12 17 25 1q13 -14 3 -24l-8 -4q-20 -3 -51 -13zM142 534q-31 10 -51 13q-16 3 -10 20q5 16 18 15q7 -1 12 -8q3 -5 8.5 -11.5t12.5 -15t10 -13.5zM256 515v219h-251v61h534v-61h-252v-219q42 -6 70.5 -38.5t28.5 -75.5 t-28.5 -75.5t-71.5 -37.5v-217h253v-66h-534v66h251l-1 217q-42 6 -70 38t-28 75t28.5 75.5t70.5 38.5zM406 269q31 -10 51 -13q16 -3 10 -20q-5 -16 -18 -15q-7 1 -12 8q-3 5 -8.5 11.5t-12.5 15t-10 13.5zM133 262q-3 -5 -10 -13.5t-12.5 -15t-8.5 -11.5q-12 -17 -25 -1 q-13 14 -3 24l8 4q20 3 51 13zM287 486v-47l-16 -34l-14 34v47q-30 -6 -50.5 -30t-20.5 -55t20 -54.5t50 -29.5v47l15 33l15 -33v-47q30 5 51 29t21 55t-20.5 55t-50.5 30z" />
</font>
</defs>
</svg>
